<?xml version="1.0" encoding="UTF-8"?>
<svg width="101px" height="101px" viewBox="0 0 101 101" version="1.1" xmlns="http://www.w3.org/2000/svg" xmlns:xlink="http://www.w3.org/1999/xlink">
    <title>Headshot_placeholder_grey</title>
    <defs>
        <path d="M0,2.63636364 L34.8,0 L69.6,2.63636364 L69.6,23.2 C66.9394982,34.3701327 64.2625751,41.5761933 61.5692308,44.8181818 C58.8758864,48.0601704 52.2728095,52.4541098 41.76,58 L30.16,58 L13.3846154,50.0909091 C9.13373796,45.8887186 6.21886616,42.3384155 4.64,39.44 C3.06113384,36.5415845 1.51446717,31.9015845 0,25.52 L0,2.63636364 Z" id="path-1"></path>
    </defs>
    <g id="People" stroke="none" stroke-width="1" fill="none" fill-rule="evenodd">
        <g id="D.b---People-Grid-Horizontal" transform="translate(-623.000000, -742.000000)">
            <g id="Group" transform="translate(623.000000, 742.000000)">
                <circle id="Oval" fill="#D8D8D8" cx="50.5" cy="50.5" r="50.5"></circle>
                <g transform="translate(14.800000, 24.000000)" id="UChicago-Pheonix">
                    <mask id="mask-2" fill="white">
                        <use xlink:href="#path-1"></use>
                    </mask>
                    <g id="Mask"></g>
                    <g id="Footer-/-Desktop-Ext" mask="url(#mask-2)" fill="#4A4A4A" fill-rule="nonzero">
                        <g transform="translate(-2.320058, -30.160177)" id="Fill-1">
                            <path d="M463.733617,6.54289786 L463.762308,6.48541019 L463.760206,6.42168892 C463.697581,5.30137185 463.664691,3.85240538 463.664691,2.34387335 L463.664691,2.04639195 L463.368,2.11253741 C462.989437,2.19842261 461.061983,2.19842261 459.197155,2.19842261 L453.433687,2.19842261 C452.254611,2.19842261 451.20744,2.17175664 449.812843,2.10561118 L449.752666,2.10353331 L449.697036,2.13019928 C449.43883,2.25591028 449.394044,2.61953715 449.389497,2.72758627 C449.369553,2.99909433 449.449675,3.21519258 449.607818,3.31666181 L450.211701,3.41570683 C451.800477,3.60548541 451.878148,3.77760214 451.878148,7.08764554 L451.878148,18.2464882 C451.878148,21.523632 451.800477,21.6936709 450.211701,21.8831032 L449.347162,21.9866503 L449.286984,22.0417138 C449.108897,22.2183325 449.081959,22.5071561 449.115546,22.7166745 C449.153332,22.9483568 449.260394,23.1225513 449.40979,23.1973546 L449.46542,23.2260984 L449.527697,23.2240205 C450.993667,23.164455 452.052036,23.1312091 453.433687,23.1312091 C454.699179,23.1312091 455.781688,23.164455 457.590886,23.2240205 L457.651063,23.2260984 L457.706694,23.1973546 C457.911719,23.0958853 458.000588,22.8202216 458.014232,22.5954655 C458.029626,22.3288058 457.949857,22.1147854 457.793461,22.0133162 L456.617187,21.8831032 C455.022114,21.7487344 454.926248,21.545796 454.926248,18.2464882 L454.926248,13.9352589 C454.926248,13.3375256 454.926248,13.3375256 455.719411,13.3375256 L457.849443,13.3375256 C458.947695,13.3375256 459.767448,13.3617673 460.188698,13.4808984 C460.62779,13.6197693 460.866052,13.9040908 461.030843,14.4910885 L461.360774,15.7745182 L461.418503,15.8230017 C461.728492,16.0855057 462.392202,16.0719996 462.59023,15.7745182 L462.630815,15.7128748 L462.630815,15.6418809 C462.630815,15.3201578 462.605975,14.9052768 462.579383,14.4446828 C462.545795,13.8843511 462.50801,13.2471383 462.50801,12.633821 C462.50801,12.005266 462.545795,11.3417335 462.576935,10.7571601 C462.605975,10.2744021 462.630815,9.84012774 462.630815,9.50455209 L462.630815,9.43182672 L462.59023,9.37226118 C462.441535,9.14958302 462.124897,9.12534121 461.995445,9.12534121 C461.734789,9.12534121 461.507721,9.20914855 461.389814,9.35009727 L461.059881,10.6913609 C460.883547,11.4411249 460.674672,11.5159281 460.433608,11.6018133 C460.104027,11.7098625 459.136977,11.7760079 457.849443,11.7760079 L455.719411,11.7760079 C454.926248,11.7760079 454.926248,11.7760079 454.926248,11.1786209 L454.926248,4.6374931 C454.926248,3.63630713 454.926248,3.63630713 455.625644,3.63630713 L457.535256,3.63630713 C458.831887,3.63630713 459.852119,3.63630713 460.514079,3.81500376 C461.855496,4.16131506 462.258549,5.04994984 462.528302,6.56956384 L462.543696,6.65302486 L462.608423,6.70843465 C462.728781,6.81198175 462.897768,6.86912311 463.080754,6.86912311 C463.323565,6.86912311 463.619908,6.76765389 463.733617,6.54289786 L463.733617,6.54289786 Z M442.714608,12.5700997 C442.714608,7.33664335 439.241063,1.70215852 431.607868,1.70215852 C425.115613,1.70215852 420.218433,6.50999827 420.218433,12.8831651 C420.218433,18.2222464 424.130718,23.6274732 431.607868,23.6274732 C437.941981,23.6274732 442.714608,18.8729654 442.714608,12.5700997 L442.714608,12.5700997 Z M439.103212,13.5338841 C439.103212,19.9226349 435.28434,22.1895887 432.015821,22.1895887 C425.554356,22.1895887 423.832276,15.7149526 423.832276,11.890637 C423.832276,5.43158489 427.735468,3.14004304 431.077459,3.14004304 C437.001869,3.14004304 439.103212,8.73955045 439.103212,13.5338841 L439.103212,13.5338841 Z M413.487561,66.3733694 C413.487561,79.7617644 423.558326,91.5910657 440.241351,91.5910657 C454.747812,91.5910657 466.320233,80.6549012 466.320233,65.6277614 C466.320233,52.5371941 457.602082,40.1143151 440.241351,40.1143151 C424.761192,40.1143151 413.487561,51.4961823 413.487561,66.3733694 L413.487561,66.3733694 Z M421.004948,63.9938645 C421.004948,47.7030349 431.148835,42.419017 438.964661,42.419017 C453.319627,42.419017 458.805297,55.6598832 458.805297,67.9369651 C458.805297,82.5890499 450.23864,89.2842861 441.219248,89.2842861 C426.414343,89.2842861 421.004948,75.0027546 421.004948,63.9938645 L421.004948,63.9938645 Z M404.399595,3.29899993 C404.559838,3.16220695 404.642058,2.9371046 404.624562,2.70126662 C404.60672,2.46300444 404.488462,2.25591028 404.307927,2.14335911 L404.241452,2.10145544 L404.165529,2.10561118 C401.939983,2.23374636 400.627606,2.23374636 398.272256,2.10561118 L398.207881,2.10353331 L398.150151,2.13227715 C397.978713,2.21816235 397.858007,2.39270325 397.820221,2.61087937 C397.779985,2.86022351 397.858007,3.1203033 398.024895,3.28791796 L398.085075,3.3474835 L398.731641,3.41570683 C399.339722,3.49293425 399.718285,3.638385 399.827796,3.72011447 C399.729481,4.16339293 398.633677,6.17476895 397.969267,7.39620891 L397.826867,7.65871287 C397.07394,9.10352362 396.202405,10.658115 395.099952,12.5281961 C394.275651,11.0504857 393.471292,9.42974885 392.691423,7.85507138 C392.385983,7.23759832 392.078445,6.62220314 391.773354,6.01788993 C391.548385,5.57045573 390.839892,3.98712046 390.828696,3.73985419 C390.828696,3.67821079 390.971094,3.55249978 391.940594,3.41570683 L392.426217,3.34298146 L392.482199,3.28584009 C392.651186,3.1178791 392.724661,2.81173992 392.658184,2.54473391 C392.606752,2.3331377 392.472751,2.176605 392.290468,2.11669314 L392.243583,2.10353331 L392.196701,2.10803536 C391.428028,2.1676009 390.307384,2.19842261 388.865905,2.19842261 C387.415328,2.19842261 386.265642,2.1676009 385.249959,2.10561118 L385.176487,2.10145544 L385.113859,2.13885707 C384.962364,2.22474227 384.85775,2.3882012 384.819615,2.59529536 C384.77728,2.8446395 384.842356,3.10471929 384.991053,3.27441182 L385.044934,3.33882572 L386.007437,3.50851825 C386.838386,3.6449649 387.252636,3.71561241 388.306455,5.73564623 L392.000772,12.8679274 C392.887352,14.5548098 392.979018,14.9031989 392.979018,16.6035874 L392.979018,18.1824206 C392.979018,21.545796 392.898548,21.7199906 391.31677,21.8831032 L390.2584,21.9845724 L390.198223,22.0441379 C390.019787,22.2207567 389.995296,22.5116582 390.028884,22.7232544 C390.066669,22.9528588 390.17618,23.1246292 390.325226,23.1973546 L390.378757,23.2260984 L390.441034,23.2240205 C392.127775,23.1623771 393.223931,23.1312091 394.533857,23.1312091 C395.803898,23.1312091 396.926992,23.1665329 398.784823,23.2240205 L398.845,23.2260984 L398.898532,23.1973546 C399.050026,23.1246292 399.159537,22.9483568 399.194874,22.7187524 C399.230561,22.5071561 399.203971,22.2183325 399.023436,22.0417138 L398.960808,21.9824945 L397.684469,21.8831032 C396.235992,21.7750541 396.026417,21.5367919 396.026417,18.1824206 L396.026417,16.5706878 C396.026417,14.2483243 396.093595,14.0190662 397.466149,11.6679588 L399.439785,8.28934573 C399.61822,7.98528442 399.789659,7.68988088 399.954799,7.40521299 C401.186704,5.27470587 402.075734,3.73569848 403.405604,3.50851825 L404.350262,3.34298146 L404.399595,3.29899993 Z M393.424407,41.2304767 C392.147719,40.9326487 388.164058,40.1143151 383.879853,40.1143151 C372.529953,40.1143151 365.090941,43.6099816 360.055558,48.816772 C355.39664,53.7257345 353.291451,60.1234895 353.291451,66.4481727 C353.291451,72.9934564 355.697532,78.8707055 360.207053,83.3343118 C365.993263,89.1343334 374.185555,91.5910657 383.128676,91.5910657 C387.185809,91.5910657 392.595556,90.6979289 396.581316,89.6572635 C398.007402,89.2842861 399.362114,88.9864584 400.261989,88.9864584 C400.564978,88.7637802 400.564978,88.3159998 400.337912,88.0933216 C398.987749,87.5728156 398.535363,85.7889661 398.535363,82.8138058 L398.535363,78.6480272 C398.535363,74.8528016 398.608835,72.7707782 401.766094,72.3981473 L402.96896,72.2502723 C403.494822,71.8028381 403.418899,70.689101 402.893389,70.3912733 C400.413832,70.539148 397.858007,70.6118736 394.926066,70.6118736 C390.492117,70.6118736 386.359409,70.539148 384.180396,70.3912733 C383.654535,70.6118736 383.578614,71.9527908 384.180396,72.2502723 L387.488801,72.6208253 C392.147719,73.1434091 392.372688,73.5891118 392.372688,79.8369138 L392.372688,82.8138058 C392.372688,85.1933107 391.996222,86.5321503 391.622209,87.0526562 C390.793007,88.3159998 388.014662,89.2842861 383.351546,89.2842861 C368.24785,89.2842861 360.806038,78.0502939 360.806038,63.7687621 C360.806038,52.6119974 367.19613,42.3462915 381.773966,42.3462915 C389.440745,42.3462915 395.077561,44.8757493 397.183101,52.909825 C397.633037,53.3551815 398.987749,53.282456 399.210617,52.6847227 C398.535363,48.2214628 398.082976,44.3531655 398.082976,41.9009353 C397.183101,42.0484638 394.852591,41.5279579 393.424407,41.2304767 L393.424407,41.2304767 Z M380.613433,1.72432244 L380.635475,1.63601306 L380.59769,1.55670777 C380.481882,1.32537182 380.158947,1.30078372 380.022846,1.30078372 C379.945176,1.30078372 379.829368,1.30736363 379.728603,1.3492673 L379.650932,1.37801114 L379.608597,1.45073651 C379.207291,2.14128124 379.038303,2.19842261 377.373954,2.19842261 L364.428978,2.19842261 C363.027735,2.19842261 362.399361,2.12569723 362.270258,1.43099677 L362.254515,1.35827139 L362.201333,1.30736363 C362.114214,1.22147843 361.971465,1.17957477 361.76889,1.17957477 C361.695066,1.17957477 361.441408,1.18615468 361.300757,1.27654193 L361.216089,1.3340296 L361.198596,1.43549881 C360.978174,2.67252278 360.51669,4.63541523 360.017773,6.01581206 L359.984183,6.11070135 L360.031068,6.2010886 C360.220699,6.57614374 360.859918,6.75691825 361.205242,6.5009942 L361.256675,6.46359258 L361.280816,6.40610489 C361.599551,5.68958683 361.900091,5.01012405 362.630979,4.3465916 C363.321979,3.72011447 364.883813,3.63630713 366.322845,3.63630713 L368.045273,3.63630713 C368.74257,3.63630713 368.74257,3.63630713 368.74257,4.38814896 L368.74257,18.2464882 C368.74257,21.6053615 368.546292,21.7508123 367.022592,21.8831032 L365.894949,21.9755683 L365.788238,22.0088142 C365.601054,22.1234432 365.496442,22.3551255 365.509737,22.6307893 C365.518485,22.8403076 365.603156,23.0983095 365.808181,23.1997787 L365.86171,23.2240205 L365.92189,23.2240205 C367.837796,23.1665329 368.994481,23.1312091 370.26627,23.1312091 C371.48978,23.1312091 372.501264,23.1599529 374.359441,23.2240205 L374.419621,23.2260984 L374.475252,23.1997787 C374.731358,23.0740677 374.775793,22.7100946 374.78279,22.5999676 C374.800283,22.3308837 374.720162,22.1168633 374.564467,22.0133162 L373.452569,21.8831032 C371.884086,21.7487344 371.790321,21.545796 371.790321,18.2464882 L371.790321,4.35074734 C371.790321,4.03560405 371.790321,3.73777635 371.841401,3.68686856 C371.895282,3.63630713 372.23396,3.63630713 372.461028,3.63630713 L374.682377,3.63630713 C376.360021,3.63630713 377.500608,3.8745693 378.171316,4.36390718 C378.467658,4.57792754 378.723767,5.36301525 378.857769,6.46359258 L378.866865,6.53181589 L378.9113,6.58480152 C379.025009,6.72367236 379.238779,6.80747968 379.479494,6.80747968 C379.777936,6.80747968 380.024946,6.6817687 380.127458,6.47883026 L380.158947,6.41718686 L380.150202,6.34896354 C380.058533,5.45790457 380.276856,2.96134641 380.613433,1.72432244 L380.613433,1.72432244 Z M352.063745,18.1824206 L352.063745,7.14928894 C352.063745,3.75994026 352.159609,3.55249978 353.750135,3.418131 L354.598929,3.35198556 L354.650359,3.31666181 C354.806403,3.21276842 354.884425,2.99909433 354.868682,2.72758627 C354.862033,2.61953715 354.81725,2.25591028 354.559042,2.13019928 L354.505513,2.10353331 L354.445333,2.10561118 C352.96362,2.16517672 351.85417,2.19842261 350.571182,2.19842261 C349.227669,2.19842261 348.149006,2.16517672 346.631956,2.10561118 L346.571778,2.10353331 L346.516148,2.13227715 C346.25969,2.25798815 346.217354,2.62196134 346.210708,2.73208831 C346.192864,3.0011722 346.272985,3.21519258 346.429029,3.31666181 L346.48011,3.35198556 L347.324706,3.418131 C348.92013,3.55249978 349.015645,3.75994026 349.015645,7.14928894 L349.015645,18.1824206 C349.015645,21.51913 348.935524,21.6936709 347.318057,21.8831032 L346.451421,21.9866503 L346.391243,22.0441379 C346.212807,22.2207567 346.188317,22.509234 346.221904,22.7211765 C346.25969,22.9483568 346.366752,23.1246292 346.516148,23.1973546 L346.571778,23.2260984 L346.631956,23.2240205 C348.227028,23.1623771 349.274202,23.1312091 350.571182,23.1312091 C351.813933,23.1312091 352.852359,23.1623771 354.445333,23.2240205 L354.505513,23.2260984 L354.561492,23.1973546 C354.819698,23.0719899 354.862033,22.7080167 354.868682,22.5975434 C354.884425,22.3288058 354.806403,22.1168633 354.650359,22.0133162 L353.759232,21.8831032 C352.143866,21.6936709 352.063745,21.51913 352.063745,18.1824206 L352.063745,18.1824206 Z M346.905906,88.5411022 C343.673074,88.1684713 342.697276,87.0526562 340.515815,80.6549012 L330.220433,50.7505742 C329.093138,47.4803566 327.892022,44.0577619 326.911677,40.782696 C326.762631,40.2646143 326.236772,40.1143151 325.786833,40.1143151 C324.957633,41.0826017 323.683394,42.419017 321.878746,42.9416007 C322.103712,44.1325652 321.651326,45.54413 320.599607,48.2214628 L312.935274,68.3075181 C309.778364,76.6390753 307.672826,81.4753128 306.320564,84.8958293 C305.271291,87.5728156 303.615689,88.3935734 301.81314,88.5411022 L299.331136,88.7637802 C298.8812,89.1343334 299.032694,90.3252979 299.485081,90.6252036 C301.512599,90.5500539 304.217123,90.4004474 306.697028,90.4004474 C310.228302,90.4752506 312.56126,90.4752506 314.515304,90.6252036 C315.18811,90.3252979 315.18811,89.1343334 314.664699,88.7637802 L312.184794,88.5411022 C310.379797,88.3935734 310.003333,87.945793 310.003333,87.0526562 C310.003333,86.2343226 310.529192,84.2274486 311.656487,80.8775795 L314.287535,73.0686059 C314.813397,71.5050104 315.265784,71.2823322 317.143904,71.2823322 L328.491356,71.2823322 C330.745943,71.2823322 331.046833,71.5050104 331.572694,73.1434091 L334.879,83.2591621 C335.480782,85.0457822 335.857245,86.3821976 335.857245,87.2001847 C335.857245,87.945793 334.805527,88.3935734 333.227947,88.5411022 L331.046833,88.7637802 C330.520974,89.1343334 330.594798,90.3252979 331.19833,90.6252036 C333.377343,90.5500539 336.231261,90.4004474 339.838808,90.4004474 C343.220687,90.4004474 345.852087,90.4752506 348.933425,90.6252036 C349.307438,90.3252979 349.456836,89.1343334 348.933425,88.7637802 L346.905906,88.5411022 Z M327.515558,68.3075181 L318.271548,68.3075181 C316.168106,68.3075181 316.092535,68.2323687 316.691866,66.5208982 L321.428807,53.5778595 C322.255209,51.3483075 323.006038,49.5620339 323.231007,49.187325 L323.380402,49.187325 C323.832789,50.0804618 324.507695,52.0914914 325.109128,53.8756874 L329.166613,66.0003923 C329.843617,68.0096904 329.694571,68.3075181 327.515558,68.3075181 L327.515558,68.3075181 Z M330.581503,6.34203731 C330.581503,5.14691702 331.035988,3.14004304 334.070093,3.14004304 C336.830944,3.14004304 337.672741,4.91765893 338.096087,6.46809462 L338.142972,6.5560577 C338.243386,6.67761296 338.412725,6.74375841 338.615651,6.74375841 C338.853564,6.74375841 339.172298,6.64886912 339.308401,6.44142864 L339.348286,6.3818631 L339.348286,6.31156192 C339.348286,5.04336993 339.085531,3.27441182 338.773795,2.44534257 L338.715714,2.29123404 L338.548474,2.29123404 C338.328054,2.29123404 337.909255,2.23582423 337.51005,2.11461528 C336.764118,1.9161789 335.589594,1.70215852 334.540322,1.70215852 C330.574505,1.70215852 327.909867,3.94071476 327.909867,7.27084421 C327.909867,10.1022854 330.095528,11.9526267 331.399157,12.801782 L334.375532,14.7269265 C336.5388,16.1028213 336.835494,17.5299702 336.835494,18.8660392 C336.835494,20.5203682 335.699105,22.1895887 333.159022,22.1895887 C329.990914,22.1895887 328.607164,19.7726821 328.005382,17.7415663 L327.974594,17.6774988 C327.878727,17.5386279 327.711839,17.4638247 327.497716,17.4638247 C327.28849,17.4638247 326.989699,17.5407058 326.827009,17.7658082 L326.780124,17.8319536 L326.782223,17.9133367 C326.842403,19.3138196 327.246157,21.6095173 327.655859,22.3572034 L327.689095,22.414691 L327.747176,22.4475906 C328.359805,22.802906 330.077684,23.6274732 332.753518,23.6274732 C336.886574,23.6274732 339.664922,21.2258043 339.664922,17.6553348 C339.664922,15.1767849 338.345899,13.163331 335.636477,11.5027683 L333.13243,9.95233261 C332.178675,9.36810544 330.581503,8.12207739 330.581503,6.34203731 L330.581503,6.34203731 Z M322.694301,23.2680021 C322.839147,23.153373 322.912622,22.9705207 322.88568,22.787322 C322.858741,22.6197073 322.754479,22.4829144 322.602633,22.4233488 L322.531608,22.4081111 C321.784978,22.3551255 321.029951,22.053142 320.508639,21.5942796 C318.352018,19.8055817 316.635887,17.1923166 314.265495,13.4081731 C314.100703,13.1456691 314.076212,13.026538 314.080759,12.9759766 C315.120935,12.5458579 318.057775,11.0262439 318.057775,7.61230714 C318.057775,5.01670396 316.57396,3.70453044 315.332959,3.0628156 C313.762025,2.22058653 311.749903,2.10561118 309.987588,2.10561118 C307.122473,2.10561118 304.896927,2.18526278 302.985218,2.35287745 L302.898449,2.37919711 C302.715466,2.46750649 302.595108,2.66836704 302.577615,2.91320914 C302.555223,3.17744466 302.655286,3.43336871 302.831273,3.56150388 L302.882706,3.59648134 L303.94562,3.72669438 C304.968303,3.85032751 305.115247,4.06850364 305.115247,7.11638938 L305.115247,18.2464882 C305.115247,21.523632 305.037225,21.6936709 303.448449,21.8831032 L302.570617,21.9866503 L302.51044,22.0572978 C302.332702,22.2602362 302.314509,22.5556397 302.356844,22.7651581 C302.401627,22.9746764 302.50414,23.1270534 302.648988,23.1997787 L302.704619,23.2260984 L302.766895,23.2240205 C304.156945,23.1665329 305.297881,23.1312091 306.667987,23.1312091 C307.964619,23.1312091 309.049927,23.1665329 310.386446,23.2240205 L310.449071,23.2260984 L310.504701,23.1973546 C310.73422,23.0851497 310.791947,22.787322 310.805245,22.666113 C310.836733,22.3904492 310.762909,22.1546112 310.611764,22.0285539 L310.558233,21.9866503 L309.833994,21.8831032 C308.225275,21.6625029 308.160899,21.5260562 308.160899,18.2464882 L308.160899,14.3387115 C308.160899,13.8954331 308.160899,13.8954331 309.392803,13.8954331 C310.596018,13.8954331 311.00607,14.1821788 311.420322,14.7840679 C311.8951,15.4676864 312.449651,16.3365814 312.984607,17.1746548 C313.545803,18.0525539 314.074113,18.8795453 314.490813,19.4661966 C316.642885,22.4984984 318.2628,23.4709405 321.169901,23.4709405 C321.774131,23.4709405 322.302092,23.411375 322.620826,23.3054037 L322.694301,23.2680021 Z M313.25611,11.7320264 C312.360782,12.4045629 311.141821,12.4907944 310.179318,12.4907944 C308.764431,12.4907944 308.327787,12.4378088 308.198685,12.397983 C308.160899,12.2701941 308.160899,11.9041431 308.160899,11.549174 L308.160899,4.29568384 C308.160899,3.5989055 308.160899,3.54349571 309.9568,3.54349571 C313.478977,3.54349571 314.726627,5.98741454 314.726627,8.07774954 C314.726627,9.79579989 314.258846,10.9580206 313.25611,11.7320264 L313.25611,11.7320264 Z M297.074103,18.7250904 L297.087398,18.6499409 L297.056259,18.5817176 C296.920507,18.281812 296.588827,18.1495211 296.319074,18.1495211 C296.165481,18.1495211 296.024831,18.1890006 295.915672,18.2686521 L295.840098,18.3545374 C294.941973,20.1297291 294.133415,21.0297922 293.723361,21.2545482 C293.050555,21.5876996 292.103448,21.6936709 289.822272,21.6936709 C287.213264,21.6936709 286.542556,21.3868391 286.210524,21.0561118 C285.764786,20.5906694 285.678016,19.5808257 285.678016,17.9974904 L285.678016,13.6263492 C285.678016,13.026538 285.678016,13.026538 286.471532,13.026538 L288.289475,13.026538 C289.38318,13.026538 290.200834,13.0507798 290.642025,13.1744129 C291.076567,13.2824621 291.299089,13.5626279 291.437637,14.1755989 L291.718237,15.3818012 L291.767218,15.4811925 C291.883026,15.6221412 292.103448,15.7059485 292.353258,15.7059485 C292.640503,15.7059485 292.872119,15.5978994 292.976731,15.4192028 L293.008219,15.3641393 L293.008219,15.300418 C293.008219,14.9980882 292.983728,14.5991376 292.957139,14.1489329 C292.921103,13.5844455 292.881216,12.9448085 292.881216,12.3231798 C292.881216,11.6745387 292.921103,11.0110062 292.954691,10.4264328 C292.983728,9.95233261 293.008219,9.52671601 293.008219,9.19356455 L293.008219,9.13192114 L292.976731,9.07685764 C292.872119,8.89608314 292.640503,8.78803401 292.350807,8.78803401 C292.103448,8.78803401 291.883026,8.87184136 291.767218,9.01279004 L291.464227,10.3890312 C291.323928,11.0968914 291.147943,11.2028627 290.87574,11.2908258 C290.539512,11.4033769 289.596953,11.4674445 288.289475,11.4674445 L286.471532,11.4674445 C285.678016,11.4674445 285.678016,11.4674445 285.678016,10.8343875 L285.678016,4.6374931 C285.678016,3.63630713 285.678016,3.63630713 286.379863,3.63630713 L288.632351,3.63630713 C289.96257,3.63630713 290.978253,3.66505097 291.613625,3.81500376 C293.041809,4.16997283 293.326605,5.06310968 293.761149,6.41510899 L293.821327,6.60038553 L293.865761,6.67969083 C293.972821,6.80747968 294.153356,6.87812719 294.373778,6.87812719 C294.592099,6.87812719 294.892989,6.80540184 295.03329,6.60038553 L295.080172,6.52973802 L295.037837,6.07329975 C294.875147,4.26936419 294.728199,2.73659038 294.55886,2.26456807 L294.485388,2.06162965 L294.273714,2.11253741 C293.925939,2.19842261 291.983091,2.19842261 290.107418,2.19842261 L284.218695,2.19842261 C283.011282,2.19842261 281.977403,2.17175664 280.533824,2.10561118 L280.473298,2.10353331 L280.417668,2.13019928 C280.15946,2.25591028 280.116775,2.61953715 280.110478,2.72758627 C280.090185,2.99909433 280.170656,3.21276842 280.326351,3.31666181 L280.932331,3.418131 C282.534404,3.60548541 282.630268,3.8105017 282.630268,7.08764554 L282.630268,18.2464882 C282.630268,21.6053615 282.436089,21.7508123 280.90784,21.8831032 L279.789645,21.9824945 L279.727017,22.0441379 C279.548581,22.2183325 279.521991,22.5071561 279.555578,22.7187524 C279.593364,22.9483568 279.700427,23.1246292 279.851921,23.1973546 L279.905452,23.2260984 L279.967729,23.2240205 C281.776927,23.164455 282.866433,23.1312091 284.218695,23.1312091 L287.037276,23.1312091 C289.768391,23.1312091 292.511401,23.1623771 295.423049,23.2240205 L295.579442,23.2260984 L295.645919,23.0893054 C296.067166,22.2183325 296.853681,19.8121616 297.074103,18.7250904 L297.074103,18.7250904 Z M275.591861,3.28791796 C275.7612,3.1178791 275.790238,2.82247556 275.7612,2.62196134 C275.729711,2.39685898 275.629647,2.22474227 275.476051,2.13885707 L275.413774,2.10145544 L275.342401,2.10561118 C274.293128,2.1676009 273.332727,2.19842261 272.318792,2.19842261 C271.088987,2.19842261 269.906064,2.16517672 269.079662,2.10561118 L269.006189,2.10145544 L268.941111,2.13885707 C268.769654,2.23582423 268.651766,2.44118683 268.629374,2.68810678 C268.602435,2.93294889 268.682905,3.16220695 268.843147,3.29899993 L268.899127,3.3474835 L269.536247,3.418131 C270.629951,3.54141784 270.730365,3.76859804 270.732464,3.76859804 C270.732464,3.97153645 270.701327,4.282524 270.467261,4.89099295 C269.928104,6.24056809 268.433445,9.79129785 267.557712,11.8269157 C267.328193,12.3540015 267.034301,13.042122 266.711017,13.8005438 C266.118681,15.1944467 265.394093,16.8903332 264.779365,18.2222464 C263.297649,14.8526375 261.932093,11.4716003 260.548343,8.018184 C259.632723,5.7931339 259.106863,4.17447487 259.008549,3.77102223 C259.055432,3.67163088 259.327283,3.53933997 260.263196,3.41570683 L260.804449,3.34540563 L260.85798,3.29899993 C261.018222,3.16428482 261.098693,2.93502675 261.074202,2.68810678 C261.05181,2.4432647 260.933554,2.23582423 260.760017,2.13885707 L260.697738,2.10353331 L260.628464,2.10561118 C259.233867,2.17175664 258.139812,2.19842261 256.849828,2.19842261 C255.54445,2.19842261 254.544161,2.16967877 253.610348,2.10561118 L253.532326,2.10145544 L253.46585,2.14335911 C253.284966,2.25591028 253.164609,2.46300444 253.146766,2.70126662 C253.126823,2.9371046 253.211492,3.16220695 253.372084,3.29899993 L253.429813,3.3474835 L254.066933,3.418131 C255.285893,3.55700184 255.702243,4.1104073 256.408987,5.81287364 L261.920897,19.2632582 C262.575861,20.8729131 263.057286,22.2512321 263.349081,23.3563115 L263.379869,23.4730184 L263.491479,23.5173462 C263.672014,23.5900716 263.861297,23.6274732 264.050577,23.6274732 C264.231112,23.6274732 264.40255,23.5789896 264.529905,23.4951823 L264.601278,23.4487766 L264.627868,23.3694713 C265.164926,21.7044065 266.666583,18.050476 267.873996,15.3024959 L269.564935,11.4916863 C271.015512,8.23220439 272.225376,5.77547202 273.056325,4.39057313 C273.455181,3.75301403 273.874331,3.47077033 274.495706,3.418131 L275.527134,3.34956136 L275.591861,3.28791796 Z M255.145244,46.4348427 C249.432857,50.8257237 245.674164,57.8939372 245.674164,66.1506914 C245.674164,75.7459385 250.335181,82.5159782 256.34636,86.6069535 C261.834127,90.2525726 268.294894,91.5910657 275.059353,91.5910657 C279.869414,91.5910657 285.283711,90.4752506 286.932315,89.8799417 C287.761165,89.5841917 288.663488,89.2842861 289.563715,89.1343334 C290.691007,87.7231148 292.64505,82.8138058 293.173011,78.9434308 C292.872119,78.4232713 291.742728,78.2753963 291.218968,78.6480272 C289.489891,83.0364841 285.205689,89.2842861 275.511388,89.2842861 C263.186389,89.2842861 253.18945,80.6549012 253.18945,65.0345302 C253.18945,49.6371833 262.958971,42.419017 274.460019,42.419017 C285.357183,42.419017 288.736963,48.2214628 289.864607,53.282456 C290.390466,53.7257345 291.517409,53.6530092 291.894222,53.1325033 C291.292789,48.5961715 290.918075,43.9098872 290.840402,42.1984168 C290.163049,42.2711421 289.639286,42.1236135 288.736963,41.9009353 C285.205689,40.9326487 279.49295,40.1143151 275.436166,40.1143151 C267.620338,40.1143151 260.630912,42.1984168 255.145244,46.4348427 L255.145244,46.4348427 Z M245.536314,18.1824206 L245.536314,7.14928894 C245.536314,3.79491769 245.647574,3.55042191 247.225154,3.418131 L248.071848,3.35198556 L248.12258,3.31666181 C248.278623,3.21276842 248.359095,2.99909433 248.341251,2.72758627 C248.332504,2.61953715 248.290169,2.25591028 248.031263,2.13019928 L247.975633,2.10353331 L247.915455,2.10561118 C246.436189,2.16517672 245.328839,2.19842261 244.043403,2.19842261 C242.697439,2.19842261 241.621578,2.16517672 240.106275,2.10561118 L240.046096,2.10353331 L239.992916,2.13019928 C239.734359,2.25591028 239.689925,2.61953715 239.683278,2.72758627 C239.665084,2.99909433 239.745555,3.21519258 239.901599,3.31666181 L239.954779,3.35198556 L240.797275,3.418131 C242.376605,3.55042191 242.488214,3.79491769 242.488214,7.14928894 L242.488214,18.1824206 C242.488214,21.51913 242.408093,21.6936709 240.788178,21.8831032 L239.92399,21.9866503 L239.865562,22.0441379 C239.687826,22.2207567 239.658786,22.509234 239.694123,22.7211765 C239.73226,22.9504346 239.838971,23.1246292 239.990467,23.1997787 L240.046096,23.2260984 L240.106275,23.2240205 C241.699599,23.1623771 242.742223,23.1312091 244.043403,23.1312091 C245.281956,23.1312091 246.360266,23.164455 247.915455,23.2240205 L247.975633,23.2260984 L248.031263,23.1997787 C248.291919,23.0719899 248.334603,22.7080167 248.341251,22.5999676 C248.359095,22.3308837 248.278623,22.1168633 248.120481,22.0133162 L247.233901,21.8831032 C245.616435,21.6936709 245.536314,21.51913 245.536314,18.1824206 L245.536314,18.1824206 Z M229.81754,79.0937299 L229.81754,52.6119974 C229.81754,44.7282208 229.969036,43.4621066 234.400535,43.0894757 L236.280756,42.9416007 C236.731044,42.641695 236.581648,41.3052799 236.129611,41.0826017 C232.373017,41.2304767 229.81754,41.3052799 226.811776,41.3052799 C223.654866,41.3052799 221.099389,41.2304767 217.342795,41.0826017 C216.890409,41.3052799 216.741362,42.641695 217.1913,42.9416007 L219.071871,43.0894757 C223.50547,43.4621066 223.654866,44.7282208 223.654866,52.6119974 L223.654866,79.0937299 C223.654866,86.9799309 223.50547,88.0205963 219.071871,88.5411022 L217.1913,88.7637802 C216.741362,89.2094828 216.890409,90.4004474 217.342795,90.6252036 C221.099389,90.4752506 223.654866,90.4004474 226.811776,90.4004474 C229.81754,90.4004474 232.373017,90.4752506 236.129611,90.6252036 C236.581648,90.4004474 236.731044,89.0616081 236.280756,88.7637802 L234.400535,88.5411022 C229.969036,88.0205963 229.81754,86.9799309 229.81754,79.0937299 L229.81754,79.0937299 Z M233.69414,3.28791796 C233.843536,3.13796517 233.919109,2.89520094 233.892519,2.65278303 C233.865928,2.43218274 233.754668,2.24482832 233.587079,2.14335911 L233.522702,2.10145544 L233.447129,2.10561118 C232.417451,2.16517672 231.602246,2.19842261 230.23424,2.19842261 C229.128989,2.19842261 228.097561,2.17175664 226.55112,2.10561118 L226.500038,2.10353331 L226.455254,2.12119519 C226.275069,2.18734065 226.145616,2.3573795 226.103631,2.58663759 C226.0522,2.86230138 226.136869,3.14246721 226.319503,3.29899993 L226.375133,3.3474835 L226.979015,3.41570683 C228.055227,3.55042191 228.60103,3.7090325 228.745877,3.92755493 C229.120242,4.51420626 229.336114,6.80540184 229.336114,10.2169144 L229.336114,16.8484295 C229.336114,17.1483351 229.336114,17.4967243 229.316171,17.7349864 C228.231213,16.6233272 227.094823,15.3665634 225.682384,13.8005438 L221.326456,8.96222861 C218.229725,5.52405001 216.453766,3.26783189 216.05526,2.25798815 L215.983886,2.07929152 L215.794604,2.10803536 C215.41814,2.16517672 214.905575,2.19842261 214.388462,2.19842261 C213.84056,2.19842261 212.174112,2.19842261 210.868383,2.10561118 L210.803657,2.10145544 L210.743478,2.13227715 C210.578688,2.21366031 210.46288,2.38369915 210.427193,2.5997974 C210.382409,2.85779932 210.458331,3.1268832 210.616474,3.28584009 L210.676652,3.34540563 L211.291731,3.41570683 C212.127229,3.51960022 212.748954,3.75301403 213.083083,4.08616551 C213.668772,4.71922255 213.711457,5.29028988 213.711457,6.15710707 L213.711457,15.3953073 C213.713556,16.8924111 213.718104,20.403315 213.323796,21.4024231 C213.252422,21.5589558 212.987218,21.7729762 212.140524,21.8831032 L211.20916,21.9845724 L211.151431,22.0441379 C211.010782,22.1809309 210.939758,22.4011849 210.9597,22.6352913 C210.979643,22.8690514 211.082156,23.0674878 211.242398,23.180039 L211.311673,23.2285226 L211.396343,23.2240205 C212.485849,23.164455 213.323796,23.1312091 214.640371,23.1312091 C215.700838,23.1312091 216.759206,23.1578751 218.294102,23.2240205 L218.376672,23.2260984 L218.443498,23.180039 C218.590445,23.0761456 218.688759,22.9109551 218.719898,22.7145966 C218.755585,22.4874164 218.697506,22.2536563 218.559306,22.0704576 L218.497028,21.9845724 L217.41417,21.8831032 C216.663341,21.8214598 216.13748,21.6472652 216.008377,21.4110809 C215.669699,20.8223517 215.475869,18.5266541 215.475869,15.1127173 L215.475869,8.3554912 C215.475869,7.80208575 215.487065,7.21127867 215.542695,6.78981781 C216.039516,7.34114542 216.868366,8.3094318 217.614647,9.1828289 C218.127212,9.78229375 218.599541,10.3360455 218.90708,10.6844347 L226.170108,18.8660392 C228.585285,21.5856218 229.741618,22.9348506 230.162866,23.5263503 L230.236339,23.6274732 L230.358795,23.6274732 C230.770946,23.6274732 231.078485,23.4380409 231.183447,23.1225513 L231.198841,23.0719899 L231.194293,23.0210821 C231.151958,22.6595331 231.100877,21.431167 231.100877,17.6248594 L231.100877,9.79579989 C231.094229,8.21004045 231.083033,4.90449911 231.544167,3.93829057 C231.584402,3.85898529 231.958417,3.59440347 233.119298,3.41570683 L233.636411,3.34298146 L233.69414,3.28791796 Z M205.619229,3.24151224 C205.759528,3.07389757 205.824255,2.81831983 205.786119,2.58871543 C205.75498,2.39478111 205.652467,2.23582423 205.498872,2.14128124 L205.434146,2.10145544 L205.358573,2.10561118 C204.271166,2.16517672 203.426921,2.19842261 202.083406,2.19842261 C200.882639,2.19842261 199.719309,2.1676009 198.52729,2.10561118 L198.447169,2.10145544 L198.380343,2.14543698 C198.235495,2.24275046 198.135432,2.41902291 198.106392,2.62854125 C198.072804,2.86230138 198.132982,3.08497954 198.266634,3.24393643 L198.33346,3.31873967 L199.215841,3.38488512 C199.933432,3.44445065 200.423605,3.63422926 200.590495,3.91855083 C200.956113,4.55368575 201.156591,6.792242 201.156591,10.2169144 L201.156591,13.780804 C201.156591,17.4326567 200.111518,21.7882139 195.134215,21.7882139 C190.958823,21.7882139 189.015975,19.2345144 189.015975,13.7499823 L189.015975,7.05474595 C189.015975,3.75994026 189.125135,3.51960022 190.673676,3.38488512 L191.486782,3.32081752 L191.540313,3.28584009 C191.696357,3.18437087 191.774379,2.97485255 191.758634,2.71234857 C191.74324,2.49625033 191.654022,2.23166849 191.448996,2.13019928 L191.395466,2.10353331 L191.333188,2.10561118 C189.849374,2.16517672 188.797654,2.19842261 187.492275,2.19842261 C186.206489,2.19842261 185.09704,2.16517672 183.619873,2.10561118 L183.559695,2.10353331 L183.504065,2.13019928 C183.299039,2.22924431 183.209822,2.49417246 183.194077,2.7102707 C183.176583,2.97242835 183.256705,3.1819467 183.412398,3.28584009 L183.46383,3.32081752 L184.308425,3.38488512 C185.859065,3.51960022 185.968225,3.75994026 185.968225,7.05474595 L185.968225,14.3695332 C185.968225,18.1162752 186.748094,20.429981 188.492564,21.8675192 C189.873865,23.0342419 191.896834,23.6274732 194.505842,23.6274732 C196.974551,23.6274732 199.333749,22.7298343 200.663968,21.2877941 C202.18137,19.6777928 202.918904,17.2013207 202.918904,13.7191606 L202.918904,10.2169144 C202.918904,8.64466113 202.918904,4.96371833 203.337703,3.9912762 C203.482551,3.67821079 204.019257,3.44029494 204.701161,3.38488512 L205.554502,3.31873967 L205.619229,3.24151224 Z M169.621079,42.9416007 C170.071366,42.641695 169.92197,41.3052799 169.472033,41.0826017 C166.2392,41.2304767 163.683723,41.3052799 160.753881,41.3052799 C157.523148,41.3052799 154.967671,41.1577511 151.2849,41.0826017 C150.832514,41.3052799 150.683468,42.641695 151.133405,42.9416007 L153.0871,43.0894757 C156.997287,43.3873033 157.523148,44.6530711 157.523148,52.4620447 L157.523148,79.2412585 C157.523148,87.0526562 157.371652,87.797918 153.163022,88.5411022 L151.886333,88.7637802 C151.434296,89.2094828 151.585442,90.4004474 152.035729,90.6252036 C154.967671,90.5500539 157.523148,90.4004474 160.753881,90.4004474 C163.683723,90.4004474 166.2392,90.4752506 170.298784,90.6252036 C170.748722,90.4004474 170.897768,89.0616081 170.44783,88.7637802 L168.268817,88.5411022 C164.060187,88.0933216 163.683723,87.0526562 163.683723,79.2412585 L163.683723,68.7528743 C163.683723,66.5208982 163.835218,66.3733694 167.442066,66.3733694 L188.935854,66.3733694 C192.543051,66.3733694 192.694546,66.5208982 192.694546,68.7528743 L192.694546,79.2412585 C192.694546,87.0526562 192.694546,87.797918 188.109102,88.5411022 L186.681268,88.7637802 C186.23098,89.2094828 186.380377,90.4004474 186.832413,90.6252036 C190.139069,90.4752506 192.843942,90.4004474 195.92528,90.4004474 C198.857221,90.4004474 201.412698,90.4752506 205.019895,90.6252036 C205.469833,90.4004474 205.619229,89.0616081 205.169291,88.7637802 L203.364293,88.5411022 C199.006267,88.0205963 198.857221,87.0526562 198.857221,79.2412585 L198.857221,52.4620447 C198.857221,44.6530711 199.006267,43.5348319 203.364293,43.0894757 L204.943973,42.9416007 C205.39426,42.641695 205.244864,41.3052799 204.792478,41.0826017 C201.412698,41.2304767 198.857221,41.3052799 195.92528,41.3052799 C192.843942,41.3052799 190.288115,41.2304767 186.832413,41.0826017 C186.380377,41.3052799 186.23098,42.641695 186.681268,42.9416007 L188.109102,43.0894757 C192.543051,43.5348319 192.694546,44.6530711 192.694546,52.4620447 L192.694546,61.0166263 C192.694546,63.3234059 192.543051,63.3982092 188.935854,63.3982092 L167.442066,63.3982092 C163.835218,63.3982092 163.683723,63.3234059 163.683723,61.0166263 L163.683723,52.4620447 C163.683723,44.6530711 163.835218,43.5348319 168.192894,43.0894757 L169.621079,42.9416007 Z M166.591173,18.7250904 L166.606917,18.6499409 L166.575429,18.5817176 C166.439678,18.281812 166.107648,18.1495211 165.838245,18.1495211 C165.682201,18.1495211 165.541902,18.1890006 165.432741,18.2686521 L165.356819,18.3545374 C164.459043,20.1297291 163.650135,21.0297922 163.242532,21.2545482 C162.567276,21.5876996 161.620518,21.6936709 159.338992,21.6936709 C156.732433,21.6936709 156.059276,21.3847612 155.727596,21.058536 C155.283956,20.5885915 155.197188,19.5808257 155.197188,17.9974904 L155.197188,13.6263492 C155.197188,13.026538 155.197188,13.026538 155.990351,13.026538 L157.806195,13.026538 C158.8999,13.026538 159.717905,13.0507798 160.159096,13.1744129 C160.595738,13.2824621 160.818258,13.5626279 160.954359,14.1755989 L161.234957,15.3818012 L161.28394,15.4811925 C161.399748,15.6221412 161.620518,15.7059485 161.872427,15.7059485 C162.157224,15.7059485 162.38919,15.5978994 162.493803,15.4192028 L162.524941,15.3641393 L162.524941,15.300418 C162.524941,14.9980882 162.50045,14.5991376 162.47386,14.1489329 C162.438173,13.5844455 162.400386,12.9448085 162.400386,12.3231798 C162.400386,11.6745387 162.438173,11.0110062 162.47386,10.4264328 C162.50045,9.95233261 162.524941,9.52671601 162.524941,9.19356455 L162.524941,9.13192114 L162.493803,9.07685764 C162.39129,8.89608314 162.157224,8.78803401 161.869978,8.78803401 C161.620518,8.78803401 161.399748,8.87184136 161.28394,9.01279004 L160.983398,10.3890312 C160.84065,11.0968914 160.664663,11.2028627 160.390712,11.2932499 C160.056583,11.4033769 159.116122,11.4674445 157.806195,11.4674445 L155.990351,11.4674445 C155.197188,11.4674445 155.197188,11.4674445 155.197188,10.8343875 L155.197188,4.6374931 C155.197188,3.63630713 155.197188,3.63630713 155.896585,3.63630713 L158.151521,3.63630713 C159.48174,3.63630713 160.497424,3.66505097 161.130345,3.81500376 C162.558529,4.16997283 162.845776,5.06310968 163.280319,6.41510899 L163.340497,6.60038553 L163.382832,6.67969083 C163.489893,6.80747968 163.670428,6.87812719 163.892947,6.87812719 C164.109169,6.87812719 164.409711,6.80540184 164.55036,6.60038553 L164.597243,6.52973802 L164.554908,6.07329975 C164.392217,4.26693999 164.24527,2.73659038 164.075581,2.26456807 L164.004557,2.06162965 L163.792883,2.11253741 C163.445109,2.19842261 161.500161,2.19842261 159.62204,2.19842261 L153.735765,2.19842261 C152.530101,2.19842261 151.496574,2.17175664 150.052645,2.10561118 L149.990368,2.10353331 L149.934738,2.13019928 C149.678281,2.25591028 149.633847,2.61953715 149.627199,2.72758627 C149.609355,2.99909433 149.687377,3.21276842 149.843421,3.31666181 L150.451501,3.418131 C152.053573,3.60548541 152.149438,3.8105017 152.149438,7.08764554 L152.149438,18.2464882 C152.149438,21.6029374 151.953159,21.7508123 150.424911,21.8831032 L149.306365,21.9824945 L149.246187,22.0441379 C149.065652,22.2207567 149.039061,22.509234 149.074399,22.7211765 C149.110086,22.9504346 149.219246,23.1246292 149.371091,23.1973546 L149.424272,23.2260984 L149.484451,23.2240205 C151.293647,23.164455 152.383154,23.1312091 153.735765,23.1312091 L156.553998,23.1312091 C159.285461,23.1312091 162.028121,23.1623771 164.942218,23.2240205 L165.096163,23.2260984 L165.162989,23.0893054 C165.584236,22.2228346 166.370403,19.8166637 166.591173,18.7250904 L166.591173,18.7250904 Z M140.418875,18.2464882 L140.418875,7.08764554 C140.418875,3.78625991 140.512291,3.57881946 142.078675,3.418131 L142.736088,3.35614127 L142.845248,3.31666181 C143.001292,3.21519258 143.081413,3.0011722 143.065669,2.73208831 C143.059021,2.62196134 143.016686,2.25798815 142.75813,2.13019928 L142.7025,2.10353331 L142.640222,2.10561118 C141.127369,2.17175664 140.093492,2.19842261 138.955003,2.19842261 C137.598193,2.19842261 136.504138,2.16309886 135.178467,2.10561118 L135.116189,2.10353331 L135.062659,2.13019928 C134.804102,2.25591028 134.759668,2.61953715 134.75302,2.72758627 C134.735177,2.99909433 134.813199,3.21276842 134.971342,3.31666181 L135.675287,3.418131 C137.272811,3.57881946 137.368676,3.78625991 137.368676,7.08764554 L137.368676,10.6515351 C137.368676,11.4058011 137.368676,11.4058011 136.045104,11.4058011 L127.088688,11.4058011 C125.763017,11.4058011 125.763017,11.4058011 125.763017,10.6515351 L125.763017,7.08764554 C125.763017,3.78625991 125.856783,3.57881946 127.427366,3.418131 L128.020052,3.35614127 L128.129213,3.31666181 C128.284906,3.21519258 128.365377,2.99909433 128.347534,2.72758627 C128.340886,2.61953715 128.296102,2.25591028 128.039995,2.13019928 L127.984365,2.10353331 L127.921737,2.10561118 C126.496002,2.17175664 125.446731,2.19842261 124.301245,2.19842261 C123.48359,2.19842261 122.770898,2.176605 121.991029,2.14993903 C121.48966,2.13435502 120.961701,2.11911732 120.360268,2.10561118 L120.302189,2.10561118 L120.251107,2.13019928 C119.992551,2.25591028 119.947767,2.61745928 119.94112,2.72550841 C119.923626,2.99667016 120.001298,3.21276842 120.157341,3.31666181 L120.210872,3.35198556 L121.088705,3.418131 C122.467907,3.52375596 122.712819,3.80392179 122.712819,7.08764554 L122.712819,18.2464882 C122.712819,21.4730706 122.65264,21.6095173 121.097802,21.8851811 L120.491471,21.9911523 L120.43794,22.0441379 C120.257755,22.2207567 120.230815,22.509234 120.264403,22.7211765 C120.302189,22.9504346 120.40925,23.1246292 120.560746,23.1973546 L120.613926,23.2240205 L120.674455,23.2240205 C121.104449,23.2129386 121.516251,23.1997787 121.926303,23.1841947 C122.665936,23.1578751 123.432509,23.1312091 124.301245,23.1312091 C125.47787,23.1312091 126.476059,23.1599529 128.269512,23.2240205 L128.331789,23.2260984 L128.387419,23.1973546 C128.592445,23.0958853 128.679214,22.8202216 128.692859,22.5954655 C128.708253,22.3288058 128.628132,22.1147854 128.472439,22.0133162 L127.458505,21.8831032 C125.954398,21.7220684 125.763017,21.5745398 125.763017,18.2464882 L125.763017,13.8732691 C125.763017,13.1214273 125.763017,13.1214273 127.088688,13.1214273 L136.045104,13.1214273 C137.368676,13.1214273 137.368676,13.1214273 137.368676,13.8732691 L137.368676,18.2464882 C137.368676,21.5433718 137.337537,21.6119414 135.661992,21.8851811 L134.989185,21.9890744 L134.933555,22.0441379 C134.75512,22.2207567 134.728529,22.5116582 134.764217,22.7232544 C134.802003,22.9528588 134.911163,23.1246292 135.060559,23.1997787 L135.116189,23.2260984 L135.178467,23.2240205 C136.678025,23.1578751 137.77208,23.1312091 138.955003,23.1312091 C140.189357,23.1312091 141.276415,23.164455 142.733638,23.2240205 L142.796266,23.2260984 L142.849447,23.1997787 C143.110452,23.0740677 143.152437,22.7100946 143.159435,22.6020454 C143.176928,22.3308837 143.096807,22.1168633 142.940764,22.0133162 L142.085323,21.8831032 C140.496896,21.6936709 140.418875,21.523632 140.418875,18.2464882 L140.418875,18.2464882 Z M114.672022,1.72432244 L114.694414,1.63393519 L114.654179,1.55220572 C114.533822,1.3184456 114.183948,1.30078372 114.079336,1.30078372 C114.001315,1.30078372 113.887955,1.30978781 113.785443,1.3492673 L113.707071,1.38043532 L113.667185,1.45073651 C113.263781,2.14128124 113.096891,2.19842261 111.432542,2.19842261 L98.4875668,2.19842261 C97.0842236,2.19842261 96.4558506,2.12569723 96.3242981,1.43099677 L96.3110029,1.35827139 L96.2574721,1.30736363 C96.1707036,1.22147843 96.0304042,1.17957477 95.8253783,1.17957477 C95.7519049,1.17957477 95.4978966,1.18615468 95.3596964,1.27896611 L95.2750271,1.3340296 L95.2571836,1.43549881 C95.0367631,2.66836704 94.5731805,4.6288353 94.0763598,6.01581206 L94.042772,6.11070135 L94.0875559,6.2010886 C94.2768376,6.57371958 94.9185058,6.75691825 95.261732,6.5009942 L95.3128134,6.46359258 L95.3373047,6.40610489 C95.6560396,5.69166467 95.9544818,5.01462609 96.6874669,4.3465916 C97.3781177,3.72011447 98.9424026,3.63630713 100.379334,3.63630713 L102.099313,3.63630713 C102.79906,3.63630713 102.79906,3.63630713 102.79906,4.38814896 L102.79906,18.2464882 C102.79906,21.6029374 102.60523,21.7508123 101.079081,21.8831032 L99.9517883,21.9755683 L99.8447268,22.0088142 C99.6596438,22.1234432 99.5550313,22.3527013 99.5662275,22.6283651 C99.5749742,22.8358056 99.6596438,23.0958853 99.8625704,23.1973546 L99.9182002,23.2260984 L99.9783786,23.2240205 C101.896736,23.1665329 103.053068,23.1312091 104.32276,23.1312091 C105.545918,23.1312091 106.557403,23.1599529 108.418031,23.2240205 L108.480308,23.2260984 L108.533839,23.1973546 C108.738865,23.0958853 108.828083,22.8202216 108.841378,22.5954655 C108.856772,22.3288058 108.776651,22.1147854 108.620608,22.0133162 L107.50661,21.8831032 C105.940575,21.7487344 105.846809,21.545796 105.846809,18.2464882 L105.846809,4.35524937 C105.846809,4.03768192 105.846809,3.73777635 105.898241,3.68686856 C105.951421,3.63630713 106.292548,3.63630713 106.515418,3.63630713 L108.738865,3.63630713 C110.416509,3.63630713 111.557097,3.8745693 112.227805,4.36390718 C112.526247,4.58035173 112.782705,5.36301525 112.916356,6.46359258 L112.923004,6.53181589 L112.969887,6.58687939 C113.083246,6.72367236 113.297369,6.80747968 113.538082,6.80747968 C113.834075,6.80747968 114.081436,6.6817687 114.183948,6.47675239 L114.212988,6.41718686 L114.20634,6.34896354 C114.117123,5.4558267 114.335444,2.95926854 114.672022,1.72432244 L114.672022,1.72432244 Z M93.3412754,66.1506914 C93.3412754,75.7459385 97.9998432,82.5159782 104.013122,86.6069535 C109.498441,90.2525726 115.962006,91.5910657 122.726114,91.5910657 C127.536527,91.5910657 132.945923,90.4752506 134.599076,89.8799417 C135.428277,89.5841917 136.330601,89.2842861 137.230476,89.1343334 C138.358119,87.7231148 140.311813,82.8138058 140.837673,78.9434308 C140.537132,78.4232713 139.409489,78.2753963 138.883629,78.6480272 C137.154903,83.0364841 132.87245,89.2842861 123.1785,89.2842861 C110.851052,89.2842861 100.856211,80.6549012 100.856211,65.0345302 C100.856211,49.6371833 110.625734,42.419017 122.124681,42.419017 C133.021846,42.419017 136.404074,48.2214628 137.531367,53.282456 C138.057227,53.7257345 139.18452,53.6530092 139.560984,53.1325033 C138.959551,48.5961715 138.583087,43.9098872 138.507165,42.1984168 C137.832259,42.2711421 137.306398,42.1236135 136.404074,41.9009353 C132.87245,40.9326487 127.160063,40.1143151 123.100479,40.1143151 C115.2871,40.1143151 108.297674,42.1984168 102.809906,46.4348427 C97.097519,50.8257237 93.3412754,57.8939372 93.3412754,66.1506914 L93.3412754,66.1506914 Z M73.7969833,53.6000235 L73.794884,1.78388798 C31.7411208,-2.22985998 0.000932996404,1.78388798 0.000932996404,1.78388798 C0.000932996404,1.78388798 -0.00116624551,53.5955214 0.000932996404,53.6066035 C3.35202283,88.7308808 36.5872207,92.8568335 36.9035065,92.800835 C42.8387631,91.7410186 70.702351,86.1944967 73.7969833,53.6000235 L73.7969833,53.6000235 Z M71.9587472,53.3132777 C69.0201584,84.6070058 42.5581645,89.930503 36.9213501,90.9483784 C36.6204588,91.0023366 5.05870651,87.0415743 1.87695552,53.3222819 C1.87485627,53.3091221 1.87695552,3.56808379 1.87695552,3.56808379 C1.87695552,3.56808379 32.0196201,-0.284629408 71.9566479,3.56808379 L71.9587472,53.3132777 Z M61.2400179,71.7297664 C62.4208417,70.0605459 63.0957479,68.2611124 63.4946039,66.3224617 C62.8106009,67.2090187 61.7991161,67.9830244 60.7897305,68.3823214 C60.0791371,70.6118736 60.4157156,72.9141511 61.2400179,71.7297664 L61.2400179,71.7297664 Z M62.3718593,66.7127545 C63.2161043,66.0093962 63.6996298,64.8118519 64.7845879,64.454805 C63.964834,63.7116208 63.1629236,65.193487 62.7437749,64.6795609 C63.4946039,63.4996785 63.9760298,62.6020396 64.0561509,61.1312554 C64.1005849,60.3350856 65.0298494,59.5964038 65.2481705,59.1576273 C64.3524941,59.287494 61.9618072,60.6813969 61.4782819,61.4862245 C59.8699128,63.5900657 59.9545823,65.56404 53.2282611,68.5014526 C52.893782,68.5014526 54.4713624,67.3634735 54.9212998,66.0492221 C55.1308741,65.4338269 56.017454,62.5802218 55.4069244,61.2039807 C54.0168763,62.5999616 54.3020234,63.0564 53.9098151,64.0908318 C52.9074272,66.8142238 52.356726,67.0722256 49.848132,68.7528743 C49.5140026,68.9755526 47.591097,71.9174672 45.0957982,72.0587622 C45.3477071,71.9901925 45.2028594,71.3772215 46.0450053,70.8300497 C48.8411954,69.0195341 47.77618,65.1051775 51.4257122,64.454805 C49.6074189,63.8172458 48.3643177,65.566118 48.0277392,65.3894992 C49.4982584,63.3739675 48.2061747,61.6694233 48.4199477,60.0220204 C47.9297747,60.2800222 47.4375025,60.8708293 47.3927185,61.3584355 C47.1166682,64.291346 45.735367,64.8007698 45.5950677,66.0644599 C45.8889618,68.1575654 44.1913747,69.7848823 42.9458246,71.2535884 C42.7051115,70.0363043 43.0283945,68.9513109 44.5790346,67.9456229 C45.4344757,67.3897931 44.4964646,65.7226507 44.4964646,65.7226507 C44.1511391,67.5463259 43.1127143,68.1066577 42.4643984,68.1970449 C41.9032009,68.2763502 44.445383,65.6409212 44.1511391,63.2330187 C44.0195868,62.1611852 43.7099485,62.6373631 43.533962,61.4332388 C41.3416538,63.8414877 42.9458246,65.3365135 40.6999854,68.1153154 C39.6370693,69.4319909 39.2361142,71.7498524 39.0958149,71.8094179 C39.120306,68.3601574 39.2319156,69.3682695 40.7825556,66.565226 C42.0546963,64.2626022 40.7111815,62.1123554 40.5372944,60.7233007 C37.7477517,62.6221256 37.9797178,66.2892158 37.9083437,65.4954703 C37.8390687,64.7148847 37.4916441,63.3386437 37.8660088,62.0950396 C38.4877343,60.0306781 37.1708099,56.8816694 37.1708099,56.8816694 C33.2672698,62.9417708 36.542437,70.0252221 36.2975252,69.9369129 C34.6020377,67.3104878 33.3676835,67.2069408 32.997867,65.193487 C32.7973894,64.0974115 30.7852659,58.0965294 27.0913,57.9909045 C28.9540272,59.5787419 28.5040898,59.796918 28.6265455,62.3994474 C27.4390744,68.911485 36.6449498,69.5864457 36.0277727,72.9626347 C34.7668281,70.962687 32.8418234,70.1180335 29.9410209,68.5540918 C28.655585,67.5463259 27.205009,67.1009696 27.1269872,65.5242141 C27.2809314,64.3772311 27.3453083,64.6154933 27.1469298,63.1249696 C27.0045312,62.0597161 25.9482628,62.7035086 25.1708435,60.4829606 C23.5085938,61.9714066 24.1191233,63.656211 24.252775,64.6179175 C24.2930105,64.8890793 24.4822921,65.9013471 24.2261846,66.4921542 C23.6334987,66.0887016 23.2258958,65.2572082 22.5642848,64.4260612 C21.3719154,62.9154512 21.3852106,61.0827718 20.7883261,59.8079999 C20.5098267,59.2171928 20.1155191,58.414097 19.8835529,58.4030148 L19.8391189,58.427603 C19.5473243,60.796026 19.6900727,62.8624655 20.7750309,64.6376573 C20.7750309,64.6376573 20.4762388,65.1470811 20.2334265,65.2772942 C19.2044481,65.0082103 17.7381276,64.1479731 17.1433424,62.4853325 C15.8621051,63.5526639 16.7710769,64.9289052 16.7087994,64.9067412 C13.8279397,63.4466928 16.7423872,57.7813863 12.6404685,57.9490009 C13.649854,59.0381499 13.010285,60.441057 12.9235163,61.7487283 C12.8990252,63.8702315 15.6259404,65.5221364 15.6259404,65.5221364 C12.5869379,64.5053663 11.9610139,65.9165849 11.996701,65.9165849 C11.996701,65.9165849 16.4747339,67.8399979 23.54673,68.5675978 C24.4557017,68.6624871 25.7523335,69.7187367 25.5361116,69.7187367 C24.6292391,69.6480891 22.8336875,68.4903705 20.2400741,70.7684063 C21.7641237,70.8082319 22.8112956,73.2670422 25.2932993,71.8558238 C31.6921384,70.0626239 34.0604333,73.2074767 35.1030568,74.0147284 C34.8805371,74.411601 30.1859323,71.0970557 26.4608277,73.2937083 C24.4801929,74.4645867 21.2984419,73.4038353 18.8052423,71.5579959 C19.8125285,74.1026915 24.0991805,76.9673785 25.5116204,76.9698026 C27.2494429,76.9722268 29.4686915,74.7270906 31.9884816,74.8482995 C36.0235743,75.0467361 36.5847716,78.6127034 36.1369332,78.3370397 C36.1393826,78.3391174 32.9642791,73.1392535 28.8826531,78.6920088 C30.7898143,77.8276157 33.3407431,78.048216 35.5732869,79.0958079 C35.8741782,79.2391805 35.0253848,80.1676412 34.4260513,80.8446798 C34.0338427,81.2834562 32.3317075,83.779668 30.4913721,81.3208577 C30.2149721,80.9548068 29.3392383,78.6722689 23.5824171,79.157451 C25.7544327,80.1278155 28.1542162,82.674935 29.3392383,83.8371558 C32.3561986,86.79223 36.9168017,80.2490244 37.0906888,80.9811265 C37.0906888,82.4498326 37.8527137,83.1646192 38.253669,83.9583647 C39.2630544,85.9586586 36.9703324,85.6255074 35.7272314,85.1095036 C35.7272314,85.1095036 38.1067219,88.7814421 40.0985526,86.7371666 C42.3041562,84.4743685 37.2110455,82.7674002 38.8285115,80.9679667 C39.7395824,79.9536209 42.9412762,83.2328424 44.3918522,83.2439246 C48.3041394,83.676121 48.0991135,79.9976024 50.1644176,80.1035736 C48.2240183,78.1541874 46.1562652,79.2149388 45.7241711,79.7153587 C44.422991,81.2193887 42.9080381,80.209545 41.8629656,79.3998691 C41.2881231,78.654607 40.3322682,78.5379002 39.4789264,78.7647341 C39.0713236,78.7979799 40.2990304,77.3424336 41.8941043,77.6489192 C45.4925548,78.3415418 49.1018514,77.0622678 49.9884313,76.5705056 C51.4344589,75.7656783 52.2475654,74.3984412 53.8674805,72.8722473 C53.361563,72.969561 50.3694437,74.6166174 49.4069411,75.0976438 C46.5218831,76.5331042 44.7193341,74.6720272 44.3939515,74.6806849 C43.8394017,74.6959227 43.9818004,74.2637263 44.8529857,73.9859844 C47.8118671,73.3356118 49.8547795,70.7507444 52.6754609,69.7343207 C55.7882868,68.3560017 59.7383603,69.288618 62.3718593,66.7127545 L62.3718593,66.7127545 Z M56.4988802,62.8489595 C56.407563,63.4577746 56.407563,63.9318749 56.2137332,64.6244975 C56.1958896,64.690643 56.9040339,64.9753109 57.2252179,65.2485504 C57.6797037,64.8295138 58.0873065,64.6179175 58.5641842,64.0267642 C58.457123,63.9606187 56.5611577,62.3263756 56.5566093,62.3994474 C56.5433142,62.6176235 56.5366664,62.5868018 56.4988802,62.8489595 L56.4988802,62.8489595 Z M56.7882256,65.6433453 C56.7882256,65.6433453 56.0622377,65.0965198 56.0199031,65.2021448 C55.9016457,65.5176343 55.7435028,65.8750275 55.5297301,66.296142 C55.3400987,66.675353 55.9107425,66.4041911 56.7882256,65.6433453 L56.7882256,65.6433453 Z M65.3839214,58.2579104 C65.2058359,51.5401641 61.0416397,44.0885837 62.1734808,45.4734826 C65.0095568,48.942483 65.9188784,56.4581307 67.863826,62.930689 C67.8617267,62.930689 69.1114754,63.5616681 68.8462713,55.3488957 C68.7906412,53.6838309 68.1066382,51.4719406 67.273589,49.9305091 C65.6270836,46.8805454 62.2892891,41.7399005 62.3872536,41.7021525 C63.1916133,41.0538579 65.1502058,45.4887204 66.8523413,47.2334367 C67.9596914,48.3624114 71.0252843,49.4671446 71.2369579,49.3196158 C68.777346,44.6000854 62.8172483,40.154141 63.4414229,39.6028134 C67.8281388,43.6740491 69.2139882,43.8679834 69.3945231,43.6518852 L65.4440997,39.8542354 C64.3280028,38.3723694 62.8508362,37.2323127 63.0579614,37.2783721 C64.8202751,37.6645091 62.1377937,35.8294056 60.0658419,35.2694202 C59.6914772,35.1679509 59.0945928,35.1371292 59.0743001,34.9518527 C59.0407123,34.6342851 59.5599247,34.7686541 59.9965669,34.6342851 C60.282064,34.5525557 60.567211,34.3364575 60.5738585,33.9330048 C59.7827942,34.1051215 58.9738863,33.9240006 58.2968808,33.6199394 C56.8973862,32.9758004 54.3957897,32.2305386 53.2415563,32.6803969 C52.5663003,32.9429007 52.4392962,32.9054993 51.7150576,33.4589046 C51.3966727,33.3266138 50.5142912,32.7687064 49.2666418,34.2595765 C48.881081,34.7180926 48.4178484,35.2562604 48.3933574,35.6510553 C48.3398266,36.6477392 48.4157491,35.7016166 48.6627599,36.6477392 C48.7631736,37.0446118 48.3107872,37.7725582 46.4704517,38.3813736 C45.7598583,38.6172114 45.9379438,39.3139899 45.9379438,39.3139899 C46.2902668,39.1442974 46.8493648,38.7515804 47.7093543,39.1508771 C49.3890975,39.9314628 49.7165795,38.6985947 50.761652,37.8231197 C50.761652,37.8231197 50.4744057,38.9281991 50.7592029,38.9877646 C52.0649312,39.2544244 51.628289,40.2223645 51.4634986,40.3681615 C49.8190923,41.8216299 50.5100928,42.3705334 49.9195061,43.2660944 C49.3667058,44.1149033 48.5137138,44.434895 47.239124,44.3950693 C45.483458,44.3375815 49.5384937,41.7132344 45.6594445,40.6216612 C46.2678748,41.6273493 46.5152354,42.434601 45.1584254,43.2131087 C44.3026346,43.7048709 44.7371775,46.2031605 42.5448693,45.0457881 C42.5448693,45.047866 42.3643344,46.8957831 42.1148745,46.9750885 C45.0912498,49.5575318 43.4269008,50.9670186 43.578746,54.6541952 C44.5097598,57.0008004 43.487079,58.1186934 43.2533634,58.2489065 C43.4003104,59.8388216 43.5518056,60.7101409 44.5545435,62.0043062 C45.2829805,62.9438488 44.4877176,64.3862353 45.2318988,65.3894992 C45.9159019,62.9947565 46.6464382,63.9938645 46.8448164,60.6637352 C47.1166682,60.1034034 48.2485096,59.1178014 48.8926269,59.0537339 C48.8835303,61.0651099 49.63191,62.8908631 49.4716677,63.7379404 C49.4716677,63.7379404 51.18255,63.4290309 51.7084101,63.6143074 C52.1317572,63.7576803 52.4550404,64.304852 52.4683356,64.6376573 C51.8868457,64.9992064 51.8843966,64.8603355 51.0065635,65.4954703 C49.4692187,66.6026277 48.7631736,68.8609259 48.7631736,68.8609259 C48.7586252,68.8630014 52.3724702,66.0114742 52.6331262,65.4954703 C52.8381522,65.0875156 53.0340813,64.4613847 53.2258121,63.8130901 C53.245755,63.7420963 51.3634346,62.655025 50.8463215,61.6583411 C49.2309546,58.5488122 53.3482678,63.4996785 53.4465825,63.0674818 C53.6890449,61.9935706 54.4423227,60.9813025 54.4423227,60.9813025 C54.1792179,60.676895 53.5354504,60.4850385 52.5509058,58.7694124 C50.3005185,54.8439737 55.1599136,60.4452126 55.1599136,60.4452126 C56.4498979,59.7131106 56.4565453,60.6900549 56.6213359,61.7244867 C56.6370802,61.819376 58.8069967,63.4047889 58.9116088,63.5062583 C59.5266866,62.9417708 59.9699765,62.174345 60.2218858,61.6451813 C60.2530245,61.5745337 56.2959533,58.1010315 55.6206973,56.9543947 C50.1668669,47.6985328 60.0347032,61.0651099 60.5003851,60.694557 C60.7610408,59.9711126 60.8523581,58.9765065 60.8187702,57.6269313 C60.8187702,57.5940319 58.9630402,56.3258397 57.7776684,54.3851112 C53.1946733,46.8937052 60.783083,56.6191656 60.7809837,56.5485179 C60.6896667,54.9454431 59.3639956,47.9873563 60.282064,50.0804618 C60.7519443,51.1543731 62.2270116,55.5978936 61.9572591,60.1234895 C62.4677247,59.3006538 64.5820111,58.4650047 65.3839214,58.2579104 L65.3839214,58.2579104 Z M68.3672942,13.6595951 C68.4054304,13.9328347 68.4320208,14.1250375 68.4498643,14.2504021 C68.4341201,14.1250375 68.4075297,13.9328347 68.3718426,13.6595951 C68.3718426,13.6595951 68.2360916,11.1588812 65.5266698,11.1588812 C64.6442886,11.1588812 63.5726257,12.2217105 60.8278667,11.0439058 L60.8278667,15.289336 C61.9397652,15.6155613 64.9896138,13.890931 66.2061245,13.3662694 C67.0752108,12.9891364 68.3071159,13.2360564 68.3672942,13.6595951 L68.3672942,13.6595951 Z M60.749845,19.8055817 L60.749845,24.0530898 C60.749845,24.0530898 63.1471793,24.03335 65.8051694,22.3395415 C66.6028814,21.8301176 67.7812558,22.0396359 68.3672942,22.5005762 L68.3718426,22.5005762 C68.3718426,22.5005762 68.0128721,19.7196965 65.6337313,20.0635836 C61.2554124,20.6966407 60.749845,19.8055817 60.749845,19.8055817 L60.749845,19.8055817 Z M44.3939515,26.5496479 C46.6709292,26.5496479 55.6297939,28.9821385 59.9479346,28.6908906 L59.9479346,6.38636517 C59.9479346,6.38636517 53.5889809,7.27499995 48.0879177,5.2660481 C43.5962395,3.62522516 37.4202698,6.48991223 37.4202698,6.48991223 C37.4272673,7.25075816 37.4202698,28.3646656 37.4202698,28.3646656 C37.4202698,28.3646656 39.6951484,26.5496479 44.3939515,26.5496479 L44.3939515,26.5496479 Z M39.5370055,19.2036926 C39.7528776,19.2258566 40.3969948,19.2365922 40.626512,19.2365922 C40.5995717,19.7151944 40.5995717,23.0210821 40.626512,23.3628914 C40.6555515,23.7026228 40.956093,23.8082477 41.2524359,23.6738789 C41.4039314,23.6143134 41.537933,23.7178604 41.3437532,23.8768173 C41.0141722,24.1171574 40.6153162,24.6927268 40.4302329,24.9112492 C40.0537689,24.657403 39.6416177,24.3332556 39.6706571,24.028848 C39.7196395,23.4951823 39.5548491,19.6514732 39.5370055,19.2036926 L39.5370055,19.2036926 Z M40.7199283,14.3761131 C41.3752417,14.0211441 42.8433115,13.7960417 43.3467797,13.9549986 C43.6028873,14.0211441 43.8614439,13.9549986 43.8614439,13.8379454 C43.8614439,13.6682528 44.0955093,13.7146586 44.0955093,13.8379454 C44.0955093,13.9660806 44.0909609,15.5559958 44.0776657,15.7059485 C44.0776657,15.8579792 43.8436004,15.8427415 43.8436004,15.7059485 C43.8436004,15.4766904 43.8436004,15.4039651 43.6410235,15.0995575 C43.0549852,14.2240825 41.4308715,14.1513571 40.626512,15.2031045 C40.3525609,15.5559958 40.2479487,16.1734688 40.557237,16.274938 C40.8626767,16.3764072 42.0144608,16.28602 42.3909248,16.2153725 C42.7631904,16.1516512 43.6921049,15.9971963 43.8012655,15.9220468 C43.9062276,15.8579792 44.0486263,15.772094 44.0486263,15.9528685 C44.0486263,16.1405692 44.0486263,16.7469603 44.0419786,16.930159 C44.0419786,17.1195913 43.8925827,17.0267798 43.7970671,16.9564786 C43.6879065,16.8948352 42.8142721,16.8065258 42.4357087,16.7822841 C41.8052364,16.7292984 40.8514809,16.5329399 40.5393934,16.6278292 C40.2255567,16.7206407 40.4729175,17.2033986 40.7444194,17.5628697 C41.537933,18.6260454 43.019298,18.658945 43.6144331,17.7921278 C43.8327543,17.4790624 43.8327543,17.4129169 43.8327543,17.1923166 C43.8327543,17.0534458 44.0731173,17.0267798 44.0731173,17.1923166 C44.0731173,17.3377674 44.0598221,18.6565208 44.0598221,18.784656 C44.0598221,18.914869 43.8124616,18.9522707 43.8124616,18.7780761 C43.8236575,18.4999881 43.647671,18.5179963 43.3201893,18.6125393 C42.4601998,18.8376416 41.3105151,18.914869 40.626512,18.5311561 C39.9047228,18.1207772 39.2739005,17.9884863 39.2564069,16.416233 C39.2452108,15.4635306 40.1387881,14.7047626 40.7199283,14.3761131 L40.7199283,14.3761131 Z M45.4369248,7.58390962 C45.0489149,7.69646079 44.7728646,8.07774954 44.6769993,8.47046656 C44.6010768,8.86941716 43.2845021,12.649405 43.1309076,12.896325 C42.8142721,11.7164424 41.4952483,8.90924298 41.0764494,8.3094318 C40.7111815,7.782346 40.363757,7.87931316 40.0317269,7.87030906 C39.7084436,7.87030906 39.8288,7.56624775 40.0940044,7.58841169 C40.4638207,7.63447108 42.5448693,7.81524559 43.135106,7.89939923 C43.3467797,7.93887872 43.3534274,8.1286573 43.0728287,8.21454251 C42.9304301,8.25229043 42.595951,8.41297887 42.595951,8.57401363 C42.595951,8.79669179 43.3534274,10.4420168 43.5609024,10.7505801 C43.7389879,10.3273878 44.4520304,8.52760793 44.309282,8.13281304 C44.1535882,7.73836447 44.0955093,7.67637474 43.8012655,7.64555303 C43.5028232,7.61022927 43.5028232,7.43811257 43.8593446,7.38547324 C44.2158657,7.32798558 45.2049587,7.2462561 45.5034009,7.28157985 C45.8000939,7.30824583 45.835431,7.47793836 45.4369248,7.58390962 L45.4369248,7.58390962 Z M47.6782156,7.63239321 L47.286007,7.96762254 L46.9651731,7.96762254 L46.6397905,7.65005509 L46.6285946,7.02600213 L47.1502561,6.58480152 L47.6782156,7.09214757 L47.6782156,7.63239321 Z M48.5850881,11.9986861 L47.8898889,12.8942471 L47.2415731,12.8942471 C46.9207391,12.5766796 46.7066164,12.3276818 46.6443389,12.0717578 L46.6086517,9.92358876 L45.8000939,9.4650726 C45.6506977,9.66558685 45.3519055,9.66558685 45.4656145,9.49797219 L46.5796123,8.5300321 L46.8227744,8.50336612 L47.5333678,9.20499282 L47.5200726,11.4255409 C47.8720456,11.8224136 48.0791706,11.9128009 48.5850881,11.9986861 L48.5850881,11.9986861 Z M52.5106702,9.45399066 C52.3434308,9.45399066 50.661588,9.65450488 50.661588,9.65450488 C50.5723703,9.6943307 50.7483568,11.7586923 50.8106344,11.9259607 C50.8617158,12.0980774 51.0244071,12.3540015 51.2140385,12.1884647 C51.3854766,12.0187721 51.5859544,12.3010158 51.3809284,12.4662063 C51.2651202,12.5590178 50.8932046,13.289042 50.7217665,13.3970911 C50.4565621,13.5647058 50.0710015,13.0178802 49.9439974,12.6826509 C49.7435196,12.1181635 49.6074189,10.7111007 49.609868,9.77155811 C49.6700462,9.78714211 48.8233519,9.44083082 49.2043643,9.2929559 C49.9439974,8.97746629 50.6570399,8.00502416 50.7483568,7.75360216 C50.8396738,7.49767811 51.0758385,7.60572724 50.9533828,7.85957341 C50.7081213,8.36899734 50.7350617,8.73712625 50.8396738,9.03703185 C50.875361,9.1187613 52.2989969,9.08793961 52.5106702,9.08793961 C52.6310269,9.08793961 52.6264785,9.45399066 52.5106702,9.45399066 L52.5106702,9.45399066 Z M50.5723703,16.5661858 C50.4275226,17.2872059 51.0579949,17.8783593 51.5390713,18.1297813 C51.9267312,18.3282177 52.5907914,18.2177444 52.7580311,18.1914247 C52.9182733,18.1692608 52.87174,18.1207772 52.9917467,18.0106502 C53.1145522,17.8960212 53.2569508,17.9995683 53.1589861,18.1121195 C53.0498256,18.2267485 52.0715789,19.1465513 51.8042755,19.3294037 C51.5569147,19.3910471 51.0111119,19.3733852 50.6857293,18.9654305 C50.1066884,18.2489124 49.6875398,17.9884863 49.8705237,16.6808148 C49.9975279,15.7963358 51.490089,15.02891 51.8333149,14.8394777 C51.9690659,14.9738465 52.6488705,15.6796289 52.9452134,15.9178911 C52.8290554,16.0654197 52.4525914,16.2309565 52.0918716,16.2285323 C51.7241544,16.2285323 51.4767938,15.924471 51.2318821,15.6533092 C51.0579949,15.8139977 50.6790818,16.0325201 50.5723703,16.5661858 L50.5723703,16.5661858 Z M56.5345671,13.0487019 L55.6343423,14.0235682 C55.3715872,13.8358675 55.2130946,13.6374312 55.1375218,13.3087817 C54.4468711,13.4410726 53.976641,13.8469495 53.6603552,14.0897137 C53.3727591,13.8358675 52.9473127,13.1543269 52.940665,12.6868066 C52.9294691,12.2196327 53.3017348,11.5315121 53.5599414,11.2932499 C53.5844325,11.3019078 53.6089238,11.3174918 53.6334148,11.3330758 C53.4843687,11.2447664 53.3440694,11.156457 53.2349089,11.0681476 C53.1390435,10.9801845 53.1033563,10.7505801 53.2349089,10.5653036 C53.4129944,10.3315435 53.9745417,9.63718933 54.5224438,9.55545985 C54.8121392,9.51771193 55.3068606,9.59286147 55.9842159,10.1905948 C55.8974474,10.2941418 55.8974474,12.2459523 55.8974474,12.4488908 C56.1357114,12.7377144 56.5345671,13.0487019 56.5345671,13.0487019 L56.5345671,13.0487019 Z M58.3836494,17.4659026 C58.0918549,17.4527427 57.7864152,17.3997571 57.6240739,17.3533514 C57.3655172,17.2872059 57.4767771,16.9963044 57.6839021,16.9963044 C57.8913773,16.9963044 58.2164099,17.0555237 58.3724535,17.1130113 C58.5197503,17.1746548 58.5841271,17.4835644 58.3836494,17.4659026 L58.3836494,17.4659026 Z M58.365806,18.156101 C58.0649145,18.1363612 57.7689216,18.0923797 57.6083293,18.0435498 C57.352222,17.9663224 57.4547348,17.6885807 57.6730562,17.6885807 C57.8735337,17.6906586 58.2010154,17.7547262 58.3479625,17.8077118 C58.4928102,17.8648532 58.5550874,18.1803428 58.365806,18.156101 L58.365806,18.156101 Z M53.669102,22.2692403 C53.9678942,22.1016256 54.6763883,21.4619886 54.9212998,21.2964518 C55.3313517,21.6095173 55.5965561,21.9205048 55.7991329,22.1456072 C56.0688854,22.0067363 56.4943318,21.7002508 56.6993577,21.5326361 C57.0579782,21.7840582 57.4613826,22.1123613 57.6083293,22.284478 C57.797611,22.1123613 58.0316766,22.2491542 57.8154546,22.4631746 C57.6083293,22.6550311 57.1405484,23.0609079 56.9621128,23.1973546 C56.6993577,23.0584837 56.2490703,22.5449041 56.1000242,22.4344308 C56.0241015,22.5005762 55.8750554,22.5712237 55.7456022,22.6439491 C55.7389544,22.9241149 55.7456022,25.2374744 55.7256593,25.521796 C55.3425478,25.5418821 55.0304604,25.5682017 54.7677053,25.5131382 C54.7432142,25.1470872 54.7810005,23.1402132 54.7677053,22.8181437 C54.7432142,22.421271 54.1015458,22.2799759 53.669102,22.2692403 L53.669102,22.2692403 Z M53.5155075,17.8142917 C53.5511947,16.6586509 54.3240656,15.6796289 55.5766131,15.2384283 C56.5657059,15.5649998 56.9778571,16.553026 57.0114449,17.2210605 C57.0334871,17.7613061 56.6724173,18.4736684 56.4254066,18.914869 C56.0373967,19.1683689 55.6455384,19.543424 55.2757218,19.8938911 C54.0749555,19.8873112 53.4931155,18.4913303 53.5155075,17.8142917 L53.5155075,17.8142917 Z M48.8768826,21.6095173 C49.2376024,21.2126445 49.6231632,20.9570668 49.8435836,20.7364665 C50.224596,21.016286 50.3474015,21.1884027 50.5545268,21.5038923 C50.54543,22.0088142 50.4383687,23.0785698 50.4719566,23.4512007 C50.4898002,23.8127498 51.9515723,24.060016 52.0159491,23.521502 C52.0827748,22.9902604 52.0337925,22.3021399 52.0159491,21.9890744 C51.9893585,21.7463102 51.4145163,21.6296033 51.1202724,21.6690828 C51.5124807,21.2590502 51.8490592,20.9591446 52.09607,20.7364665 C52.448393,20.9965463 52.7937182,21.3716014 53.0029425,21.6867447 C52.9917467,22.2294145 52.8958813,23.4951823 52.9742529,23.8304116 C53.0722175,24.1767229 53.0386297,24.2009647 53.3017348,24.3751593 C53.031982,24.6241571 52.8315045,24.7322062 52.6467712,24.9330668 C52.3724702,24.8516836 51.9067883,24.4433826 51.9382771,24.0797558 C51.603798,24.3065897 50.614705,24.7148907 50.2602829,24.8052779 C49.9058611,24.4368027 49.634359,24.3419134 49.609868,23.8989813 C49.5899251,23.4421966 49.7144801,22.257812 49.5675331,21.9755683 C49.4226856,21.6936709 49.1753248,21.6296033 48.8768826,21.6095173 L48.8768826,21.6095173 Z M48.0459328,18.3545374 C47.6869623,18.1540231 47.1992384,17.6885807 46.9361334,17.3027899 C46.4592556,17.9067568 46.3458966,18.4206828 45.4768106,18.6457852 C45.9802787,18.2267485 46.441762,17.3027899 46.4060748,16.4228129 C46.3679386,15.6266433 45.9312964,15.2384283 45.5460856,15.0908997 C45.2140553,15.2474324 44.9264591,15.4635306 44.755021,15.5383339 C44.5702878,15.6114056 44.5209557,15.3288155 44.6525082,15.2671721 C45.0758553,15.0621558 46.0068691,14.3608754 46.134223,14.2240825 C46.5285306,14.29473 47.0162545,14.6320372 47.0855295,14.9475268 C47.3839717,14.7667523 47.9119312,14.1953386 48.0725231,14.0630477 C48.2530578,14.3761131 48.7852156,14.7601724 49.3782517,14.9738465 C48.836647,15.8891472 47.6313325,15.3398975 47.4598944,15.1147951 C47.2636153,15.4347868 47.2191813,15.6266433 47.4130112,16.0325201 C47.660372,16.5814235 48.6519138,17.0998515 49.164129,17.2362982 C49.0084351,17.3997571 48.297492,18.1890006 48.0459328,18.3545374 L48.0459328,18.3545374 Z M46.6555347,21.1354171 C46.7111648,21.1485769 45.8802147,20.8244295 46.2367361,20.6502349 C46.86266,20.3437495 47.4777378,19.7041125 47.5736034,19.4419548 C47.6670194,19.1926107 47.9052834,19.3051619 47.7807284,19.5586617 C47.660372,19.8100838 47.5736034,20.4275568 47.6425284,20.6194133 C47.6715678,20.7032206 48.1435475,20.7451243 48.3552211,20.7475484 C48.4759275,20.7475484 48.4692798,21.1177552 48.3464741,21.1177552 C48.1904305,21.1111753 47.6043921,21.1243351 47.6043921,21.1243351 C47.5176236,21.1665851 47.5802509,23.1973546 47.6313325,23.3718955 C47.6960591,23.537086 48.1816837,23.656217 48.3622186,23.4906802 C48.5427532,23.3234119 48.7274865,23.4951823 48.5112647,23.656217 C48.4000048,23.7511063 48.0277392,24.3287536 47.7359447,24.4433826 C47.4308547,24.5604358 46.9763689,24.3661552 46.7779905,24.0707517 C46.4550572,23.5879937 46.6443389,22.0663019 46.6555347,21.1354171 L46.6555347,21.1354171 Z M44.755021,24.4257207 C44.4495813,24.1964627 44.1913747,24.1413992 44.0955093,23.7795039 C43.3110925,24.0797558 43.0171987,24.52719 42.5448693,24.8516836 C42.2709181,24.5978375 42.0389521,24.143477 42.0323043,23.6738789 C42.0235576,23.2129386 42.482242,22.5868077 42.7407984,22.3461214 C42.7096597,22.3177239 42.6918163,22.3152997 42.6540298,22.2799759 C42.5515168,22.1961686 42.4066693,21.5170521 42.5448693,21.3404334 C42.7187565,21.0935134 43.4160547,20.1453131 43.9660561,20.1013316 C44.3428699,20.0660078 44.636764,20.5314502 44.9575979,20.8708353 C44.8753777,20.9636467 44.9110649,22.6152053 44.8998688,22.8181437 C45.2493927,23.1907747 45.3942404,23.2770062 45.6038147,23.137789 C45.813389,22.9944162 45.8977085,23.137789 45.7511115,23.2770062 C45.6038147,23.4179549 44.9376553,24.2272844 44.755021,24.4257207 L44.755021,24.4257207 Z M44.0643705,22.4056869 C44.0643705,22.053142 44.0598221,21.7068307 44.0307827,21.5412939 C44.0598221,21.2853699 43.5028232,20.9082369 43.3604249,20.8995791 C43.1998326,20.8995791 43.0728287,20.9570668 42.8744503,21.2590502 C42.7743863,21.4180071 42.7988776,22.0441379 42.8856461,22.1123613 C43.3513281,22.5026541 43.6452219,22.4565947 44.0643705,22.4056869 L44.0643705,22.4056869 Z M43.1239102,22.6217852 C42.7051115,23.4092971 43.0504368,23.5724097 43.2845021,23.7642662 C43.580845,23.6208933 43.8394017,23.4906802 44.0486263,23.3407274 C44.0510754,23.1997787 44.0577228,22.9327727 44.0598221,22.6373692 C43.5853934,22.688277 43.4314492,22.791824 43.1239102,22.6217852 L43.1239102,22.6217852 Z M54.3933406,17.924765 C54.5871704,18.4206828 55.4338647,19.0668997 55.665481,19.1770267 C56.0199031,18.7559122 56.2091848,17.9884863 56.1266146,17.3377674 C56.0688854,16.8373476 55.4181205,16.2925999 54.8565732,16.0896615 C54.1414314,16.5218579 54.1414314,17.2584621 54.3933406,17.924765 L54.3933406,17.924765 Z M54.3709486,13.3087817 C54.6672915,13.1699109 54.867769,13.1082675 55.0997354,13.0947613 C55.0864402,12.9825565 55.0748943,12.8679274 55.0773434,12.7245546 C55.0773434,12.6165054 55.0864402,12.3141757 55.0906386,11.9789463 C54.696331,11.8532353 54.1995105,11.6461412 53.7716151,11.4099569 C53.8342424,11.4497827 53.9007183,11.4806044 53.9633458,11.5204302 C53.4997632,12.3605814 54.1305853,13.1127695 54.3709486,13.3087817 L54.3709486,13.3087817 Z M53.4574283,10.9514407 C53.7761635,11.2115205 54.6494479,11.6173973 55.0930879,11.7739301 C55.095187,11.4058011 55.0906386,11.0328239 55.0594998,10.8586293 C55.0885395,10.6117093 54.1995105,10.139687 54.0613103,10.139687 C53.9007183,10.1286051 53.6715511,10.3890312 53.4686245,10.6844347 C53.3661114,10.8478936 53.3727591,10.8852952 53.4574283,10.9514407 L53.4574283,10.9514407 Z M36.6162604,31.165285 C35.9074163,31.2449366 35.0453274,31.6591249 34.8315547,32.4002311 C34.3991109,32.8213456 34.4194035,31.6902928 33.5415707,32.1862106 C33.1672057,32.689401 34.1430035,33.796212 33.911387,33.8647816 C32.9555323,34.151181 33.075539,32.4442126 32.529736,32.4002311 C31.7456692,32.6758948 29.7650344,34.4666706 31.7124311,35.8848154 C31.6522529,34.925533 33.4813922,33.8845212 34.0873735,35.9970202 C35.9231605,35.8581493 36.542437,36.9608046 36.7674058,37.5848575 C39.4722789,38.0613819 38.6948596,39.8365735 38.6168378,39.8365735 C38.3603804,39.4552848 37.1977503,37.6797468 35.2926882,38.9060352 C34.8514976,39.1882789 34.0873735,39.4660205 33.7105597,39.0933896 C33.7462466,39.6866208 34.5061724,40.2247886 35.0253848,40.0838399 C36.7187732,39.6249774 37.1463189,41.1864951 35.8496871,41.6121115 C36.1281865,42.0377281 36.6606943,42.01314 37.1508673,41.7177365 C37.879304,41.27896 37.9639735,40.8862431 38.2291777,40.6216612 C38.6903112,42.8072319 35.8941211,43.018828 35.0029928,43.1490411 C35.1387437,43.6141372 35.4420844,43.7156065 36.0032816,43.8790655 C33.0555961,43.9781104 32.4765552,46.7170864 32.6500926,48.2962661 C33.3162518,48.3468274 34.3389327,46.9158692 34.2497148,47.7359343 C32.1623688,49.9305091 31.4559737,52.8634194 32.5566763,54.7359246 C33.0800871,54.5239821 33.2427784,53.9529148 33.4278617,53.4874723 C33.5079828,53.4324089 34.5796458,53.9044312 32.8642151,55.9376248 C32.745958,56.4692126 32.1445252,58.0657077 33.465648,58.4473428 C33.9691161,57.8606914 33.8956427,57.3467655 34.0048033,56.7427986 C34.3903641,56.5904215 34.642273,57.8208658 34.4928772,58.1959208 C32.7704491,58.9017032 32.9845718,64.1306577 34.9806008,66.9399348 C34.0562347,64.9001612 34.1807898,62.2803164 34.9806008,60.183055 C35.5977779,58.5664738 36.9503895,54.9322832 36.9860767,54.9738404 C37.7547492,55.9068031 38.723899,59.916049 38.723899,61.5745337 C39.8022097,60.6460733 40.0138833,59.6313811 40.8938155,58.9481089 C41.3126144,60.403309 41.4819532,61.3650156 41.8160825,62.6508694 C42.2418787,61.3958373 43.37372,59.9776924 41.7583534,55.9088811 C42.0903835,55.6110534 42.7030122,57.3204459 42.8968423,57.2366385 C43.043789,57.1791509 43.2621102,56.3258397 42.7142081,54.7359246 C41.5778185,53.6859089 41.3238103,52.1444772 41.5018958,52.029848 C41.6491926,51.9349587 42.1593085,53.6266896 42.7631904,53.7125747 C42.8856461,52.3983233 43.2085797,51.0549817 43.1085157,50.0361338 C43.0861239,49.7694743 42.6403849,48.4153971 41.3860878,47.2926557 C40.6597501,46.6443611 40.3791515,45.2902838 40.4438781,45.0170443 C41.1478238,45.656335 40.9942293,46.1283573 41.5890144,46.3863591 C41.8384743,45.8350317 41.6691355,43.790756 40.9452469,42.8955412 C40.5306467,42.2185028 40.7269258,42.3109677 41.2237462,42.7213468 C41.8720624,43.4842706 41.5599749,43.4247048 42.1194229,43.7422724 C43.3425813,40.8820874 42.2306828,40.3262577 42.3153521,40.1233193 C42.3909248,39.9425449 43.2621102,41.4576567 44.0017433,40.8755074 C42.7964285,40.2445282 42.8300163,39.2852461 42.6939154,38.2511605 C42.5893032,37.4328269 42.0567956,37.1263412 42.2597222,36.9279049 C43.4625879,37.8255439 43.794618,36.8305915 43.8327543,36.6321552 C43.6007879,36.762368 42.5312241,36.9012391 42.4000216,35.2538362 C42.3485901,34.6034634 41.3416538,34.319142 41.3416538,34.319142 C41.9609303,34.2020887 43.9461132,34.0916155 43.4716845,32.1446532 C43.2309714,32.6031695 42.6403849,33.3286917 41.4084798,33.0440239 C41.4063804,33.0440239 42.199544,32.8324275 42.0567956,31.9856963 C40.1496342,33.0440239 38.6035426,30.8875434 36.6162604,31.165285 L36.6162604,31.165285 Z M40.1475349,33.7390706 C38.8862406,33.9814884 37.9440309,35.3466476 36.5091989,34.7620741 C36.3241159,34.6408652 35.9343564,34.5393959 35.9854381,34.2571521 C36.2439947,34.4050271 36.6449498,34.4974923 36.9255484,34.5393959 C36.9255484,34.5393959 36.1572259,33.9066852 36.8345815,33.1302552 C35.9700436,33.668423 35.6670529,33.5229722 35.6670529,33.2383043 C35.6670529,33.1080914 36.7988943,32.292182 37.8681082,32.6935567 C38.6413288,32.9823804 39.3029399,33.5669539 40.1475349,33.6860849 L40.1475349,33.7390706 Z M38.1112703,33.7608882 C38.1112703,34.0521361 37.7323572,34.4600905 37.7323572,34.4600905 L39.1003631,33.7764721 C38.8264121,33.5977754 38.0577396,33.1676569 37.7323572,33.0751918 C37.7323572,33.0751918 38.1088213,33.3640153 38.1112703,33.7608882 L38.1112703,33.7608882 Z M30.023241,26.5496479 C33.4590005,26.7744041 36.3863934,28.3470037 36.3863934,28.3470037 L36.3863934,6.41303112 C36.3863934,6.41303112 31.333518,2.91320914 23.1254821,6.04663377 C20.7103043,6.96643657 14.835226,6.19450869 14.835226,6.19450869 L14.835226,28.6115855 C19.988515,28.9578968 26.7015408,26.3290476 30.023241,26.5496479 L30.023241,26.5496479 Z M27.5748253,14.7466662 C28.2343373,14.9541067 29.2122341,14.8017297 29.522222,15.6706248 C29.8539023,16.5880034 29.2503704,17.763384 28.4837971,17.8187938 C27.8375806,17.8714331 27.2560904,17.657759 26.8953706,17.6865028 C26.7281312,17.7017406 26.6077745,17.7526483 26.5790848,17.9313449 C26.554244,18.1252793 26.2981364,18.2090866 26.246705,17.9531626 C26.1910749,17.7107447 26.1176015,16.667655 26.1176015,16.3653253 C26.1176015,16.0609176 26.4006493,16.0325201 26.4562793,16.3653253 C26.5098101,16.6894726 26.6077745,16.9211549 26.8642319,17.2033986 C27.0580619,17.4239989 28.3256542,17.7329086 28.7913359,17.3665112 C29.1657009,17.0690298 29.0764829,16.416233 28.6842747,16.164811 C28.2966148,15.908887 26.7302303,15.5494158 26.4632768,15.1082152 C26.008441,14.3497935 26.8215475,13.7167364 27.1784186,13.5117201 C27.7396159,13.2028105 28.3882815,13.3022018 28.6108013,13.3067039 C28.8291224,13.3067039 29.1209169,13.3794292 29.1366614,13.1435912 C29.1524057,12.9098311 29.3325905,12.9316487 29.3549825,13.1723351 C29.4284559,13.8514515 29.4952818,13.4434968 29.4753389,14.1645169 C29.4753389,14.4931664 29.3549825,14.4976684 29.2122341,14.2438222 C29.1209169,14.0762076 28.1563155,13.2803842 27.3788961,13.776302 C26.7169351,14.2064206 26.9688443,14.5835536 27.5748253,14.7466662 L27.5748253,14.7466662 Z M29.4620438,19.2410943 C29.176547,19.5081003 28.9473797,19.7616002 28.7000189,20.0348398 C28.4837971,19.8963153 28.1563155,19.6161494 27.9044063,19.3997049 C28.3165574,19.2123505 28.5439754,18.9609284 28.6842747,18.6876888 C28.8515144,19.0450821 29.178996,19.1860308 29.4620438,19.2410943 L29.4620438,19.2410943 Z M25.2555129,20.9349028 C25.6074858,20.681403 26.2022711,19.5919076 26.2823922,19.3446414 C26.3558656,19.0911415 26.5031624,19.1770267 26.476572,19.4485348 C26.4450832,19.8343255 26.2669977,20.6921386 26.3359227,20.8663332 C26.3674114,20.9546426 26.921961,20.9480627 27.1070443,20.9480627 C27.2295,20.9480627 27.2382468,21.3030318 27.1224388,21.3030318 C26.9733924,21.3030318 26.3537662,21.3913411 26.3537662,21.3913411 C26.2669977,21.4287428 26.3114316,22.7014368 26.431788,22.8358056 C26.6815979,23.0719899 26.8708796,23.2351025 27.207108,22.8797871 C27.3722484,22.7121724 27.5436865,22.8690514 27.3498567,23.038744 C27.2448945,23.1336333 26.7771135,23.6981207 26.6725011,23.9758624 C26.5654399,24.2515262 25.9507119,24.03993 25.7502342,23.7531842 C25.438147,23.2922439 25.5717987,22.3572034 25.5494068,21.4464046 C25.6074858,21.4640665 24.9567208,21.1555031 25.2555129,20.9349028 L25.2555129,20.9349028 Z M24.7807344,18.286314 C24.5557656,18.4802484 24.058945,18.171685 23.8784102,17.8693552 C23.5932632,17.395255 23.682481,16.274938 23.7202673,15.3686413 C23.7584035,15.3707192 23.5575761,15.1459632 23.3661952,15.1082152 C23.1254821,15.0465718 23.0831474,14.9606866 23.4575122,14.808656 C23.9186457,14.6299593 24.6292391,13.5359619 24.7296528,13.289042 C24.8188706,13.0487019 24.9567208,13.2758821 24.823419,13.5117201 C24.537922,14.0540436 24.6561794,14.6825987 24.7030624,14.8702994 C24.7342012,14.9541067 25.6008382,14.8370535 25.7859214,14.8370535 C25.9083772,14.8436334 25.8926328,15.2010267 25.7792738,15.1923689 C25.6298777,15.1899447 24.4934881,15.3288155 24.4934881,15.3288155 C24.4154663,15.3686413 24.5848051,17.1372531 24.7006133,17.2716219 C24.7163576,17.291708 25.0749781,17.6002713 25.2107291,17.4679804 C25.382517,17.3093699 25.5494068,17.4790624 25.3468299,17.6445992 C25.2376693,17.7259823 25.0438394,18.0767957 24.7807344,18.286314 L24.7807344,18.286314 Z M20.7103043,20.9944684 C21.1291031,20.665819 21.3544217,20.423401 21.641668,20.1543172 C21.8911279,20.54461 22.0027376,20.9148168 22.2277063,21.0782757 C22.5261485,20.8268537 23.0250684,20.517944 23.2479379,20.2710241 C23.4662591,20.3790732 23.8476213,20.6062534 23.876311,21.3781813 C23.8917054,22.147685 23.9987668,23.3563115 23.9987668,23.6229711 C23.9987668,23.7642662 24.0390022,23.7223625 24.2660702,23.6714547 C24.4777438,23.6143134 24.5648623,23.7223625 24.4000718,23.8612333 C24.2328322,23.9935243 23.4662591,24.5251121 23.261583,24.7522923 C22.9918304,24.2515262 22.9428481,23.8944792 23.0541079,23.3982151 C23.1408766,22.9923383 23.067753,21.8921073 23.067753,21.6427631 C23.067753,21.393419 22.6842915,21.3120359 22.5216002,21.1707408 C22.2945322,21.3362776 22.2675919,21.3650215 22.0692136,21.5523759 C22.0692136,21.8851811 22.0268789,24.2009647 22.0783103,24.5053723 C21.5503509,24.5251121 21.6059808,24.4922125 21.2984419,24.4922125 C21.2739507,24.0465099 21.2896951,22.2602362 21.2627548,21.8765233 C21.2340651,21.4948882 20.9041343,21.2150687 20.7103043,20.9944684 L20.7103043,20.9944684 Z M17.1923247,22.2536563 C17.4151942,20.7451243 18.8923608,20.1321532 19.33775,19.8343255 C19.4157718,20.2710241 19.9283367,21.0339479 20.2579177,21.3404334 C19.7568986,21.7463102 18.6068639,22.6990126 18.1660231,23.027662 C18.4088354,23.4643606 19.3223555,23.7795039 19.6274454,23.4466987 C19.8548632,23.2219427 20.1333627,23.301248 19.8793544,23.5921495 C19.5473243,23.9717066 19.2086466,24.5119523 19.0417569,24.8468353 C18.3776967,24.5670158 16.9939464,23.7026228 17.1923247,22.2536563 L17.1923247,22.2536563 Z M16.8113123,15.2803319 C17.1811288,14.7380085 18.0435673,14.2175026 18.6317049,14.0079842 C18.8164382,14.2240825 19.0417569,14.5572339 19.3157079,14.9142809 C19.0393077,15.1303791 18.75626,15.4060429 18.5914695,15.6003236 C18.4669145,15.4590286 17.7605195,14.4159389 17.2657982,15.1459632 C16.9939464,15.5338318 16.7112485,16.6697329 17.6289671,17.3755153 C18.0747061,17.7107447 18.5470355,17.8187938 19.157565,17.7218266 C18.8454777,18.1228551 18.7674559,18.2399083 18.5914695,18.5882975 C17.7048896,18.7427523 17.3459193,18.4625865 16.9117261,18.1031154 C15.98701,17.3599313 16.2788046,16.0875836 16.8113123,15.2803319 L16.8113123,15.2803319 Z M20.797073,13.2803842 C20.6459276,13.0573597 20.6056921,12.8589233 20.2894063,12.9448085 C19.4916944,13.1723351 18.6184097,13.4102509 17.9854883,13.0441999 C17.3102322,12.633821 16.7287422,12.5039543 16.7133477,10.9801845 C16.6976034,10.0538018 17.5243548,9.31719768 18.0656094,9.00413227 C18.678588,8.6557431 19.7320576,8.88049913 20.2089354,9.01936998 C20.4384525,9.09209533 20.6144389,9.06577567 20.6301832,8.77037214 C20.6343817,8.60933738 20.88839,8.64916319 20.8841915,8.77037214 C20.8841915,8.90266305 20.8750948,10.7772461 20.8750948,10.9292768 C20.8684472,11.0771517 20.5609083,11.0903115 20.570005,10.9493628 C20.570005,10.7349961 20.4944322,10.3315435 20.4227082,10.0008162 C20.3180959,9.50455209 19.0127173,8.59825543 18.072257,9.81796383 C18.0502149,9.87718304 17.6692025,10.5188979 17.7181848,11.0155083 C17.7514228,11.3881393 17.8095019,11.9086451 18.061061,12.2525323 C18.8010438,13.2911199 19.852764,12.9427307 20.4052145,12.0959995 C20.6056921,11.7891677 20.5721042,11.4144589 20.5853994,11.1917808 C20.5853994,11.0594898 20.8841915,11.0439058 20.8841915,11.1917808 C20.8841915,11.3462356 20.8684472,12.5943415 20.8684472,12.7113947 C20.8750948,12.8942471 21.0087465,13.03762 21.0801208,13.1259294 C21.2627548,13.403671 21.0556296,13.6218471 20.797073,13.2803842 L20.797073,13.2803842 Z M21.4835251,14.3695332 C21.8309496,14.3321316 22.1227442,15.033412 22.4327323,15.3641393 C22.3456137,15.4569507 22.3456137,17.5254681 22.3456137,17.7218266 C22.416988,17.8385335 22.6618995,17.9753265 22.7623133,17.8828614 C22.929203,17.7218266 23.0387134,17.8828614 22.8938658,18.0172301 C22.7623133,18.1495211 22.0783103,18.7340945 21.9068722,18.921449 C21.6707075,18.7406744 21.586038,18.4781705 21.5503509,18.1186994 C21.1336514,18.2156665 20.7435423,18.4473488 20.4944322,18.8244818 C20.0284006,18.6125393 19.6676808,18.2135886 19.6543856,17.763384 C19.6452889,17.2982879 19.9640238,17.0316282 20.3048007,16.7161386 C20.2467217,16.6721571 20.1935409,16.6299071 20.1242659,16.5727657 C20.0284006,16.4889584 19.9017463,15.7433502 19.9906142,15.536256 C20.2159328,15.0181743 20.9667617,14.4180168 21.4835251,14.3695332 L21.4835251,14.3695332 Z M25.2600613,9.32169972 C25.0658814,9.51563406 24.6117454,9.80030195 24.4333098,9.93016867 C24.2037927,9.79579989 23.9186457,9.38334315 23.773798,9.27529402 C23.7090714,9.33485956 23.5733204,9.40550706 23.4417679,9.47823244 C23.4417679,9.74939419 23.4550631,12.1929667 23.4284727,12.4731326 C23.078599,12.4907944 22.7801568,12.512612 22.5352453,12.4596264 C22.508305,12.1046573 22.5593866,10.155271 22.5418929,9.83770358 C22.5128534,9.44948859 22.1675281,9.42316894 21.7109429,9.29087803 C21.9691497,8.97989048 22.4526751,8.62907712 22.6709962,8.4659645 C23.0632046,8.77037214 23.3060169,8.77037214 23.5019462,8.9930503 C23.7538552,8.85417948 24.2037927,8.58717346 24.4000718,8.42406084 C24.5848051,8.64015909 24.9301304,8.9930503 25.0658814,9.15200719 C25.2467661,8.97989048 25.4650872,9.12534121 25.2600613,9.32169972 L25.2600613,9.32169972 Z M28.8515144,11.7077846 C28.6265455,11.8158337 28.1766081,12.2788519 27.8155384,12.2788519 C26.7302303,12.2369483 25.3625742,11.4563626 25.5630518,10.013976 C25.7722763,8.50994605 26.9688443,7.93680085 27.481409,7.92121685 C28.0695466,7.96519837 28.2052976,8.4659645 28.5373279,8.76794797 C28.0359588,9.1738248 27.2141055,9.97449652 26.7302303,10.4638344 C26.8484876,10.7176806 27.4100349,11.6658809 28.6066026,11.3683995 C29.1524057,11.2447664 29.3325905,11.4740245 28.8515144,11.7077846 L28.8515144,11.7077846 Z M33.1626573,9.08551542 C33.0468493,9.22681043 32.599011,9.58628157 32.084347,9.98765636 C32.1623688,10.0032404 32.2403905,10.0164002 32.3180623,10.0628059 C33.1448138,10.5410618 33.4278617,11.2160225 32.6147552,11.8532353 C32.1690162,12.2082044 31.4472269,12.6054235 30.6673585,12.6230853 C30.1505952,12.6362452 29.2279784,12.2040487 29.0607387,12.0232742 C29.4819867,11.6350592 29.9343732,11.2070184 30.2618551,10.9292768 C29.7517392,10.5410618 29.270313,10.0164002 29.6625216,9.4186669 C29.9564154,8.96430648 30.865737,8.2453642 31.6697464,8.27861009 C32.4699075,8.31393384 32.8306273,8.86075939 33.1626573,9.08551542 L33.1626573,9.08551542 Z M33.6661258,13.2028105 L34.1541994,13.7060008 L34.1541994,14.2216583 L33.7910306,14.5482298 L33.4855909,14.5482298 L33.1850493,14.2438222 L33.1759525,13.6419332 L33.6661258,13.2028105 Z M34.5908416,10.7748219 C33.4523528,10.8167256 33.7486957,10.3027996 33.9355283,10.3142279 C34.90048,10.3668672 34.7689274,10.768242 34.5908416,10.7748219 L34.5908416,10.7748219 Z M34.572998,11.4452806 C33.4324101,11.3285737 33.728753,10.9756825 33.9222331,10.9867645 C34.9872485,11.0504857 34.7489845,11.4650204 34.572998,11.4452806 L34.572998,11.4452806 Z M35.085563,18.0944576 L34.6643153,18.5443159 L34.1318074,18.9962522 C33.8309161,18.6876888 33.6150441,18.6038815 33.5636127,18.3611173 L33.5457691,16.3279236 L33.0555961,16.0325201 C32.7728981,16.2815179 32.5433812,16.1734688 32.7994885,15.9462886 L33.7462466,15.0818956 L33.9670171,15.0531517 L34.3791682,15.6553871 L34.3613247,17.8142917 C34.6132336,18.0369699 34.6132336,18.0061482 35.085563,18.0944576 L35.085563,18.0944576 Z M30.8499925,23.3538873 C30.8454443,22.8711293 31.0973533,22.4853385 31.4405792,22.1390272 C31.4157382,22.1147854 31.402443,22.1082055 31.3758526,22.0881195 C31.2778882,22.0088142 31.1151969,21.1555031 31.2397519,20.9768065 C31.4048923,20.7430464 32.1665671,20.02168 32.6770328,19.9690406 C33.0265567,19.9312927 33.5482182,20.6834809 33.8487597,21.016286 C33.7665393,21.1135995 33.9558209,23.1841947 33.9558209,23.3805532 C34.0604333,23.5502458 34.4260513,23.6714547 34.5352118,23.5062642 C34.6797095,23.3234119 34.8158105,23.5173462 34.6797095,23.6541392 C34.5352118,23.7840059 34.0159994,24.2009647 33.8533081,24.3948991 C33.6195925,24.2120467 33.2273839,24.0111861 32.9733757,23.7071248 C32.4541633,23.804092 31.9129089,24.1746451 31.4937602,24.4811306 C31.0214306,24.2736901 30.865737,23.8151739 30.8499925,23.3538873 L30.8499925,23.3538873 Z M30.0792209,17.2079006 C29.760486,16.3365814 30.3374278,15.520672 30.6183762,15.284834 C30.8454443,15.1016353 31.3667561,14.660781 31.7054336,14.4467607 C32.0353646,14.645197 32.2848245,14.7840679 32.4520639,14.8637195 C32.391536,15.0247542 32.3180623,15.3398975 31.9730871,15.3575594 C31.4472269,15.3731434 31.0392742,15.2342725 30.7541271,15.536256 C30.4735285,15.8361616 30.6939489,16.6894726 31.0459219,17.0160442 C31.3090269,17.265042 32.0353646,17.5850336 32.1690162,17.291708 C32.3450027,16.9121508 32.6011103,17.1109335 32.3495511,17.4416608 C32.1802123,17.657759 31.8726733,18.1228551 31.7054336,18.4296869 C31.1463356,18.385359 30.397606,18.1031154 30.0792209,17.2079006 L30.0792209,17.2079006 Z M30.283897,23.2482623 L29.8741949,23.6981207 L29.4798873,24.0949935 C29.176547,23.7840059 28.9582259,23.7289424 28.9050449,23.4841003 L28.8893006,21.5104722 L28.265476,21.1904806 C27.9757806,21.4287428 27.7553602,21.3251957 28.00482,21.1090974 L28.9473797,20.2377782 L29.176547,20.2048786 L29.7783296,21.0803536 L29.7916248,22.9438547 C30.0365365,23.1665329 29.8227635,23.1623771 30.283897,23.2482623 L30.283897,23.2482623 Z M31.7614134,22.3859472 C31.0949042,22.9348506 31.848182,23.4446208 32.0507589,23.6229711 C32.2781768,23.5107663 32.5699715,23.4619364 32.7994885,23.3805532 C32.7704491,23.290166 32.7260151,23.2084365 32.7260151,23.1024653 C32.7260151,23.0034202 32.7438587,22.7848978 32.7617023,22.546982 C32.3159633,22.5888856 32.1154857,22.6197073 31.7614134,22.3859472 L31.7614134,22.3859472 Z M32.7795459,22.3152997 C32.8015878,21.9890744 32.814883,21.6580009 32.7861933,21.4796505 C32.8264289,21.2323842 32.0507589,20.769366 31.9262041,20.769366 C31.7656118,20.7672882 31.7656118,20.8576754 31.5808785,21.1485769 C31.4895616,21.3030318 31.5651343,21.7750541 31.6456052,21.8411995 C32.0640543,22.2072506 32.3964341,22.3243038 32.7795459,22.3152997 L32.7795459,22.3152997 Z M31.471718,10.0118981 C31.6921384,9.83562571 31.8992637,9.67216676 31.970638,9.61502539 C31.6386079,9.30819358 31.0840581,9.01521424 30.8342482,8.97989048 C30.5872374,8.95564868 30.0834195,9.16724489 30.2772493,9.42316894 C30.466531,9.66766472 30.6628101,9.97449652 31.072862,10.0316379 C31.2086132,10.0492998 31.3422648,10.0340621 31.471718,10.0118981 L31.471718,10.0118981 Z M31.1085492,10.7505801 C30.7387329,11.0394038 30.4088019,11.2974057 30.2349147,11.4477048 C30.3689163,11.6991268 31.2222581,12.3096736 31.6987861,12.0914975 C32.1690162,11.8774771 32.393985,11.4144589 31.9573428,11.1696168 C31.6564513,10.9933444 31.380401,10.8717891 31.1085492,10.7505801 L31.1085492,10.7505801 Z M26.6434617,10.1795128 C26.8642319,10.0184781 27.3921913,9.42316894 27.7329682,9.09659739 C27.5391381,8.97989048 27.1938129,8.74162829 27.0580619,8.410901 C26.4562793,8.88742536 26.3404711,9.21572846 26.6434617,10.1795128 L26.6434617,10.1795128 Z M21.5346066,17.8097897 C21.5325074,17.7107447 21.527959,17.6158553 21.5325074,17.5033042 C21.5325074,17.3820952 21.5346066,17.0621036 21.5325074,16.7247964 C21.140299,16.9630586 20.9842554,17.1483351 20.5812009,16.9121508 C19.9216891,17.4392366 20.9265262,17.763384 21.140299,17.9424269 C21.2963427,17.8648532 21.4208977,17.8385335 21.5346066,17.8097897 L21.5346066,17.8097897 Z M21.5258598,16.4692186 C21.5192122,16.2067147 21.5080162,15.9573706 21.4835251,15.8209239 C21.5167631,15.5757355 21.048982,15.0157501 20.9198786,15.006746 C20.7704826,15.0025903 20.4541968,15.284834 20.273662,15.5649998 C20.182345,15.7260346 20.1645014,16.1558069 20.3628798,16.3829871 C20.7617357,16.8286898 20.946469,16.8394254 21.5258598,16.4692186 L21.5258598,16.4692186 Z M18.6184097,20.681403 C17.3616636,21.4419026 17.5845331,22.284478 18.0012326,22.8004818 C18.2283006,22.6418712 19.0393077,22.0971236 19.3692386,21.7684741 C19.1775078,21.6580009 18.7520615,21.016286 18.6184097,20.681403 L18.6184097,20.681403 Z M10.9918639,23.656217 L13.7880541,23.656217 L13.7880541,20.9324787 L10.9918639,20.9324787 L10.9918639,23.656217 Z M10.9918639,14.169019 L13.7880541,14.169019 L13.7880541,11.4456269 L10.9918639,11.4456269 L10.9918639,14.169019 Z M7.70095233,19.6822949 C4.41913747,19.6822949 4.41913747,24.4413047 7.70095233,24.4413047 C10.878155,24.4413047 10.8582122,19.6822949 7.70095233,19.6822949 L7.70095233,19.6822949 Z M7.70095233,10.170855 C4.55943679,10.170855 4.49261094,14.9319428 7.70095233,14.9319428 C10.8582122,14.9319428 10.8582122,10.170855 7.70095233,10.170855 L7.70095233,10.170855 Z M35.9298083,37.999392 C35.7426256,37.5872817 35.4263398,37.1945647 34.9764024,36.9895484 C33.0979307,36.1050693 29.5040286,38.0149763 29.5442642,35.2320185 C29.5442642,35.2320185 28.2588283,36.178141 28.8448667,37.1661671 C30.181734,39.4265411 33.911387,36.6214195 35.9298083,37.999392 L35.9298083,37.999392 Z M19.0816425,60.6325671 C18.0344706,61.6669989 17.6713018,61.693665 17.7293808,62.1410991 C17.9655455,62.7741562 18.4245797,63.2195125 18.916852,63.7621824 C19.5361283,64.2626022 19.7635462,64.7128067 19.3087105,63.2548363 C19.030211,62.2868962 19.0973868,61.5831917 19.0816425,60.6325671 L19.0816425,60.6325671 Z M11.836109,41.0098764 L11.8896397,41.0628618 C11.880543,43.2020268 5.81163459,46.2696523 3.20927438,47.6479712 C7.22862289,49.0217881 11.0341986,45.3280318 10.5772636,46.2253245 C10.0314607,47.2753403 5.12553236,51.4653608 2.98430562,53.7059949 C4.65075382,54.162433 6.18145104,52.8325977 7.38886501,51.8137498 C8.70823857,50.7000127 10.9138421,47.908051 10.5772636,49.2953741 C7.01030173,53.6530092 4.20326541,62.7059328 5.93199114,63.28358 C6.92353307,61.2327245 11.0251019,50.7727382 11.2836585,50.8212216 C11.5555103,50.8721294 10.9607251,53.5844395 10.8715074,55.3752153 C10.6689305,59.3186621 10.6419902,61.1842409 11.5040789,65.0632739 C11.9477187,64.4634627 12.3731651,64.4766225 13.0750116,64.5251061 C13.1617803,64.1479731 13.1372891,64.2452865 12.6960984,63.6697172 C11.5555103,62.174345 12.8654373,60.1366493 12.3175351,58.892699 C11.8606002,57.8541116 11.6020435,58.685605 11.3949183,57.6047675 C11.7157525,57.3183679 12.5645459,57.2300587 12.9123204,57.174995 C13.2866852,53.1259235 14.6546912,51.068488 14.1445754,53.6221875 C13.8814704,54.9142749 13.4847137,57.0603661 13.6743452,57.1220096 C13.8636268,57.1857307 13.8793711,57.1857307 14.0420624,57.2698843 C14.1176351,57.309364 20.9153303,46.2429862 17.1478908,53.911011 C16.6531694,54.918777 14.6455944,57.6269313 14.6455944,57.6269313 C15.1735538,58.160597 15.6728235,58.789152 15.7375501,59.1707871 C15.7553936,59.2743342 24.845461,47.3259019 18.653747,56.9543947 C18.2727346,57.5431241 16.4145556,59.516752 15.9401269,60.0881657 C15.8778494,60.165393 16.1140141,62.3263756 16.1140141,62.3263756 C17.058673,61.6801587 18.4088354,60.3704094 19.0393077,59.538916 C18.9567376,58.3171297 19.2443337,58.4805887 19.3136087,57.2830441 C19.600855,57.1022697 19.977319,57.6092694 20.4318049,58.0151464 C20.6480268,58.204925 26.6725011,47.8221658 22.8938658,55.6110534 C22.2878846,56.8615834 20.9443698,58.3437958 20.8841915,58.4625806 C21.1381998,58.7316645 21.5167631,59.5873996 21.9492069,60.5820058 C21.9646014,60.6194073 30.0057475,49.0990155 25.1194121,57.805628 C24.7342012,58.4913244 22.314475,61.3757512 22.3456137,61.4509007 C22.9407488,62.8908631 23.4596115,64.2937702 23.4596115,64.291346 C23.3126645,63.1689511 23.0810482,60.9570608 25.4335986,59.1309612 C25.7390383,61.1291775 26.2802928,61.2105608 26.9821395,61.8235316 C27.2896782,62.0926155 27.8645207,63.2330187 27.933446,62.2626545 C28.1339235,59.4222091 27.2004606,59.4925103 26.5077108,58.286308 C26.3404711,57.9954066 26.3716098,57.3467655 26.5007133,57.3865914 C32.293921,57.5587081 32.0997412,62.9265331 33.066792,62.9241089 C32.6280504,61.5547941 32.507694,60.2093746 33.0290057,59.1091437 C31.4783657,58.0196482 31.8660256,56.1561472 32.1623688,55.3488957 C30.4178987,53.5646997 31.4202866,49.7694743 32.2515864,48.9688026 C31.1305914,47.3546456 32.5143415,46.2519904 32.2155495,45.2594621 C31.7456692,41.7530603 28.58631,42.7982278 27.8778159,39.4618646 C27.3855436,40.0571738 26.4720236,42.0772076 26.899919,42.7497441 C27.3921913,43.5195944 28.4439116,43.5857396 28.5082882,44.1481491 C28.5348786,44.3884893 28.6132504,45.0589479 28.4393632,45.2019746 C27.8400297,45.3082922 27.434526,44.7656223 26.8194482,44.5252822 C25.5941906,44.0446021 22.6265623,46.055632 22.4460275,44.2804402 C22.3323186,43.162201 22.8336875,43.9670285 22.7780576,42.9329429 C22.7290753,41.8656115 22.1853716,42.6174534 22.1762749,41.2415585 C22.1717266,40.2337926 23.4018823,39.9162253 23.4907502,39.5103482 C23.7090714,38.5091623 25.5452083,40.9835565 26.6210697,38.3592096 C25.9951458,38.4471727 24.7275536,38.0128983 24.845461,37.4020052 C25.1662951,35.7591044 25.1932354,31.789338 21.4411904,32.6450731 C20.0931272,32.9515587 16.3435313,34.905447 15.8222195,32.7818662 C14.469608,35.1523669 17.1454417,34.7381786 17.9519004,34.6872709 C17.6335154,34.9078711 17.2301111,35.2628402 16.2343707,35.0508976 C14.1221835,36.429563 6.40222134,41.2831159 4.17177679,42.5049022 C7.16389625,43.8856453 11.7692831,41.0098764 11.836109,41.0098764 L11.836109,41.0098764 Z M14.037514,67.4891845 C13.3111763,67.1826991 12.520112,66.9842626 11.8497541,66.5319801 C12.3220835,68.1087354 12.669508,69.4894787 13.5539886,71.1521191 C14.0595561,72.1003196 14.9352898,69.813626 14.037514,67.4891845 L14.037514,67.4891845 Z"></path>
                        </g>
                    </g>
                </g>
            </g>
        </g>
    </g>
</svg>