<svg xmlns="http://www.w3.org/2000/svg" viewBox="0 0 200 150">
  <defs>
    <linearGradient id="secGrad" x1="0%" y1="0%" x2="100%" y2="100%">
      <stop offset="0%" style="stop-color:#38A169;stop-opacity:1" />
      <stop offset="100%" style="stop-color:#276749;stop-opacity:1" />
    </linearGradient>
  </defs>

  <!-- Background -->
  <rect width="200" height="150" fill="#f8f9fa"/>

  <!-- Shield -->
  <path d="M 60 25 L 100 15 L 140 25 L 140 70 Q 140 100 100 115 Q 60 100 60 70 Z" fill="url(#secGrad)" stroke="#276749" stroke-width="2"/>

  <!-- Lock icon in shield -->
  <rect x="85" y="60" width="30" height="25" rx="3" fill="#FFFFFF"/>
  <path d="M 90 60 L 90 50 Q 90 40 100 40 Q 110 40 110 50 L 110 60" fill="none" stroke="#FFFFFF" stroke-width="5" stroke-linecap="round"/>
  <circle cx="100" cy="70" r="4" fill="#276749"/>
  <rect x="98" y="70" width="4" height="8" fill="#276749"/>

  <!-- Smart home devices -->
  <rect x="155" y="40" width="25" height="18" rx="2" fill="#718096"/>
  <rect x="160" y="44" width="15" height="10" fill="#A0AEC0"/>

  <circle cx="167" cy="85" r="12" fill="#718096"/>
  <circle cx="167" cy="85" r="6" fill="#A0AEC0"/>

  <!-- Label -->
  <text x="100" y="140" font-family="Arial, sans-serif" font-size="10" fill="#2D3748" text-anchor="middle">Security + Privacy</text>
</svg>
